<?xml version="1.0" standalone="no"?>
<!DOCTYPE svg PUBLIC "-//W3C//DTD SVG 1.1//EN" "http://www.w3.org/Graphics/SVG/1.1/DTD/svg11.dtd" >
<svg xmlns="http://www.w3.org/2000/svg">
<metadata>Generated by IcoMoon</metadata>
<defs>
<font id="iconfont" horiz-adv-x="1024">
<font-face units-per-em="1024" ascent="960" descent="-64" />
<missing-glyph horiz-adv-x="1024" />
<glyph unicode="&#x20;" horiz-adv-x="512" d="" />
<glyph unicode="&#xe900;" glyph-name="Amenities" d="M454.451 448.751c-0.789 0.94-1.268 2.164-1.268 3.499 0 3.016 2.445 5.461 5.461 5.461 0.549 0 1.080-0.081 1.58-0.232 15.062-4.663 32.422-7.355 50.41-7.355s35.348 2.692 51.699 7.694c-0.866-0.233-0.425-0.177 0.029-0.177 3.016 0 5.461-2.445 5.461-5.461 0-1.303-0.456-2.5-1.218-3.439-11.597-13.643-31.599-32.007-56.244-32.007s-44.373 18.295-55.91 32.017zM703.147 531.695c-11.159-4.569-19.824-13.3-24.199-24.214-18.359-46.674-47.651-85.363-84.846-114.4-29.127-21.812-58.55-33.827-83.467-33.827s-54.613 11.878-83.354 33.382c-37.621 29.484-66.759 68.152-84.231 112.678-5.118 13.025-13.809 21.76-24.704 26.208-7.118 2.767-15.651 6.181-15.651 39.495s8.67 35.84 16.247 38.571l1.843 0.683c59.119 13.653 86.972 68.267 99.396 105.267 13.653 1.911 28.809 3.55 44.373 4.642 23.75-16.072 51.729-27.969 81.849-33.898 64.924-13.206 119.674-8.223 148.346-68.502v0c1.638-3.891 3.482-6.827 5.598-7.646l1.843-0.683c7.646-2.731 16.247-5.871 16.247-38.571s-8.465-36.523-15.292-39.185zM717.756 650.82v-0.546h-0.41zM739.874 637.167c-2.513 17.999-6.474 34.127-11.878 49.577l0.545 48.522s-101.99 47.241-217.975 47.241-217.975-46.899-217.975-46.899v-50.722c-2.962-12.581-5.377-27.794-6.737-43.309-16.201-13.216-26.782-33.423-26.782-70.697 0-50.244 17.749-69.905 42.735-79.872 21.262-53.794 55.304-98.659 98.5-132.328 35.985-27.143 74.556-42.776 110.259-42.776s73.865 15.497 109.227 41.847c44.185 34.275 78.447 79.338 99.072 131.296 25.72 12.064 43.469 31.725 43.469 81.969-0.137 33.997-8.806 53.658-22.391 66.15zM510.566 822.374c-116.053 0-217.975-46.899-217.975-46.899v95.573c0.138 22.542 14.593 41.673 34.725 48.767 54.66 20.078 117.358 32.162 182.717 33.35 66.538-1.153 129.358-13.24 187.764-34.513 16.443-6.043 30.809-25.248 30.813-47.809v-95.164s-102.059 46.694-218.044 46.694zM628.053 584.533c0-18.512-15.007-33.519-33.519-33.519s-33.519 15.007-33.519 33.519c0 18.512 15.007 33.519 33.519 33.519 18.496-0.039 33.48-15.023 33.519-33.515zM426.735 550.4c-18.48 0.042-33.445 15.033-33.445 33.519 0 18.512 15.007 33.519 33.519 33.519 18.296 0 33.168-14.659 33.513-32.872 0.004-0.215 0.006-0.431 0.006-0.647 0-18.512-15.007-33.519-33.519-33.519-0.026 0-0.052 0-0.078 0zM594.466 38.878c-23.149 0-41.916 18.766-41.916 41.916s18.766 41.916 41.916 41.916c23.149 0 41.916-18.766 41.916-41.916-0.193-23.002-18.885-41.574-41.914-41.574 0 0-0.001 0-0.001 0zM426.735 38.878c-23.149 0-41.916 18.766-41.916 41.916s18.766 41.916 41.916 41.916c23.149 0 41.916-18.766 41.916-41.916-0.193-23.002-18.885-41.574-41.914-41.574 0 0-0.001 0-0.001 0zM661.572 282.385v58.505c-5.871-5.12-11.605-10.65-17.818-15.36-23.559-18.048-51.128-32.334-80.995-41.311l-1.812-18.627c0-27.787-22.526-50.313-50.313-50.313s-50.313 22.526-50.313 50.313v18.159c-31.959 9.464-59.768 23.924-84.079 42.694-5.418 4.068-10.812 9.393-16.546 14.445v-58.505c-97.007-57.139-268.356-40.004-268.356-157.628v-64.649c0-36.864 193.195-113.118 419.226-113.118s419.226 76.254 419.226 113.118v64.649c0.068 117.623-171.213 100.489-268.22 157.628z" />
<glyph unicode="&#xe901;" glyph-name="arrow_down" d="M585.728 150.357l410.283 419.84c37.547 38.912 37.547 101.035 0 139.947l-34.133 34.816c-36.864 37.547-97.621 38.229-135.168 1.365-0.683-0.683-0.683-0.683-1.365-1.365l-313.344-320.171-313.344 320.171c-36.864 37.547-97.621 38.229-135.168 1.365-0.683-0.683-0.683-0.683-1.365-1.365l-34.133-34.816c-37.547-38.912-37.547-101.035 0-139.947l410.283-419.84c19.115-19.797 46.421-30.037 73.728-27.989 27.307-2.048 54.613 8.875 73.728 27.989z" />
<glyph unicode="&#xe902;" glyph-name="arrow_left_2" d="M6.827 412.501c1.365-2.731 2.731-6.144 4.779-8.875 1.365-2.048 2.731-4.779 4.096-6.827 3.413-5.461 6.827-10.24 11.605-15.019l296.277-295.595c37.547-35.499 96.256-33.451 131.755 4.096 33.451 35.499 33.451 91.477 0 127.659l-137.899 137.216h613.035c51.2 0 92.843 41.643 92.843 92.843s-41.643 92.843-92.843 92.843h-613.035l137.216 137.216c34.133 38.229 31.403 96.939-6.827 131.755-35.499 32.085-89.429 32.085-124.928 0l-295.595-295.595c-4.096-4.096-8.192-8.875-11.605-14.336-1.365-2.048-2.731-4.779-4.096-6.827-2.048-2.731-3.413-6.144-4.779-9.557-1.365-2.731-2.048-6.144-2.731-9.557s-2.048-5.461-2.048-8.192c-2.048-12.288-2.048-24.576 0-36.181 0.683-2.731 1.365-5.461 2.048-8.192s2.048-6.144 2.731-8.875z" />
<glyph unicode="&#xe903;" glyph-name="arrow_left" d="M200.704 374.272l439.637-410.283c41.643-37.547 105.131-37.547 146.773 0l36.864 34.133c37.547 34.133 40.277 92.843 6.144 130.389-2.048 2.048-4.096 4.096-6.144 6.144l-336.555 313.344 335.189 312.661c37.547 34.133 40.277 92.843 6.144 130.389-2.048 2.048-4.096 4.096-6.144 6.144l-36.864 34.133c-41.643 37.547-105.131 37.547-146.773 0l-439.637-409.6c-20.48-19.115-31.403-45.739-30.037-73.728-0.683-27.989 10.24-54.613 31.403-73.728z" />
<glyph unicode="&#xe904;" glyph-name="arrow_right_2" d="M1017.173 483.499c-1.365 2.731-2.731 6.144-4.779 8.875-1.365 2.048-2.731 4.779-4.096 6.827-3.413 5.461-7.509 10.24-11.605 14.336l-296.277 296.277c-38.229 34.816-96.939 31.403-131.755-6.827-32.085-35.499-32.085-89.429 0-124.928l137.216-137.216h-613.035c-51.2 0-92.843-41.643-92.843-92.843s41.643-92.843 92.843-92.843h613.035l-137.216-137.216c-34.133-38.229-31.403-96.939 6.827-131.755 35.499-32.085 89.429-32.085 124.928 0l296.277 296.277c4.096 4.096 8.192 8.875 11.605 14.336 1.365 2.048 2.731 4.779 4.096 6.827 2.048 2.731 3.413 6.144 4.779 8.875s2.048 6.144 2.731 9.557 2.048 5.461 2.731 8.192c2.048 12.288 2.048 24.576 0 36.181-0.683 2.731-1.365 5.461-2.731 8.192s-2.048 6.144-2.731 8.875z" />
<glyph unicode="&#xe905;" glyph-name="arrow_right" d="M819.883 521.728l-438.955 410.283c-41.643 37.547-105.131 37.547-146.773 0l-36.864-34.133c-37.547-34.133-40.277-92.843-6.144-130.389 2.048-2.048 4.096-4.096 6.144-6.144l335.872-313.344-335.189-312.661c-37.547-34.133-40.277-92.843-6.144-130.389 2.048-2.048 4.096-4.096 6.144-6.144l36.864-34.133c41.643-37.547 105.131-37.547 146.773 0l439.637 410.283c20.48 19.115 31.403 45.739 29.355 73.728 0.683 27.307-10.24 53.931-30.72 73.045z" />
<glyph unicode="&#xe906;" glyph-name="arrow_up" d="M512 773.291c-2.057 0.161-4.453 0.254-6.872 0.254-26.21 0-49.895-10.813-66.836-28.222l-410.303-419.861c-17.423-18.126-28.153-42.796-28.153-69.973s10.73-51.848 28.185-70.007l35.467-36.148c17.225-16.894 40.846-27.32 66.901-27.32 26.735 0 50.906 10.977 68.251 28.67l313.359 320.186 314.709-321.536c17.225-16.894 40.846-27.32 66.901-27.32 26.735 0 50.906 10.977 68.251 28.67l34.149 34.832c17.423 18.126 28.153 42.796 28.153 69.973s-10.73 51.848-28.185 70.007l-410.251 419.807c-17.313 17.405-41.28 28.176-67.763 28.176-2.099 0-4.182-0.068-6.247-0.201z" />
<glyph unicode="&#xe907;" glyph-name="Backtotop" d="M507.904 942.251c-270.336 0-490.155-219.136-490.155-489.472s219.136-489.472 489.472-489.472 489.472 219.136 489.472 489.472c0.683 270.336-218.453 489.472-488.789 489.472zM727.040 396.8h-109.227c0-82.603 0-165.888 0-165.888 0-30.72-24.576-55.296-55.296-55.296h-109.909c-30.72 0-55.296 24.576-55.296 55.296v165.888h-109.227c-37.547 0-47.787 25.941-23.211 58.027l197.973 250.539c24.576 32.085 65.536 32.085 90.112 0l197.973-250.539c23.893-32.085 13.653-58.027-23.893-58.027z" />
<glyph unicode="&#xe908;" glyph-name="menu" d="M85.333 746.667v-85.333h853.333v85.333h-853.333zM85.333 490.667v-85.333h853.333v85.333h-853.333zM85.333 234.667v-85.333h853.333v85.333h-853.333z" />
<glyph unicode="&#xe909;" glyph-name="CircleArrowLeft" d="M512-55.125c277.845 0 503.125 225.28 503.125 503.125s-225.28 503.125-503.125 503.125-503.125-225.28-503.125-503.125 225.28-503.125 503.125-503.125zM187.733 459.605c0.683 1.365 1.365 2.731 1.365 5.461 0 2.048 0.683 4.096 1.365 6.144s2.048 4.096 2.731 5.461c0.683 1.365 1.365 3.413 2.731 4.096 2.048 3.413 4.779 6.144 7.509 8.875l188.416 188.416c22.528 20.48 56.661 20.48 79.189 0 24.576-21.845 25.941-59.392 4.096-83.968l-86.016-87.381h389.12c0 0 0 0 0 0 32.768 0 58.709-26.624 58.709-58.709 0-32.768-26.624-58.709-58.709-58.709h-389.12l86.699-87.381c20.48-22.528 20.48-56.661 0-79.189-21.845-24.576-59.392-25.941-83.968-4.096l-187.733 187.733c-2.731 2.731-5.461 5.461-7.509 8.875-0.683 1.365-1.365 3.413-2.731 4.096-1.365 2.048-2.048 3.413-2.731 5.461s-0.683 4.096-2.048 5.461c-0.683 1.365-1.365 3.413-1.365 5.461-1.365 8.192-1.365 15.701 0 23.893z" />
<glyph unicode="&#xe90a;" glyph-name="CircleArrowDown" d="M1015.125 448c0 277.845-225.28 503.125-503.125 503.125s-503.125-225.28-503.125-503.125 225.28-503.125 503.125-503.125 503.125 225.28 503.125 503.125zM500.395 123.733c-1.365 0.683-2.731 1.365-5.461 1.365-2.048 0-4.096 0.683-6.144 1.365s-4.096 2.048-5.461 2.731c-1.365 0.683-3.413 1.365-4.096 2.731-3.413 2.048-6.144 4.779-8.875 7.509l-188.416 189.099c-20.48 22.528-20.48 56.661 0 79.189 21.845 24.576 59.392 25.941 83.968 4.096l86.699-86.699v389.12c0 0 0 0 0 0 0 32.768 26.624 58.709 58.709 58.709 32.768 0 58.709-26.624 58.709-58.709v-389.12l87.381 86.699c22.528 20.48 56.661 20.48 79.189 0 24.576-21.845 25.941-59.392 4.096-83.968l-188.416-188.416c-2.731-2.731-5.461-5.461-8.875-7.509-1.365-0.683-3.413-1.365-4.096-2.731-2.048-1.365-3.413-2.048-5.461-2.731s-4.096-0.683-5.461-2.048c-1.365-0.683-3.413-1.365-5.461-1.365-6.827-0.683-14.336-0.683-22.528 0.683z" />
<glyph unicode="&#xe90b;" glyph-name="baggage" d="M932.523 729.259h-264.192v105.131c0 36.864-30.037 66.901-66.901 66.901h-178.176c-36.864 0-66.901-30.037-66.901-66.901v-105.131h-264.192c-49.835 0-90.112-40.277-89.429-88.747v-502.443c0-49.152 39.595-88.747 88.064-89.429 2.731-30.72 28.672-55.296 60.075-55.296s58.027 24.576 60.075 55.296h602.795c2.731-30.72 28.672-55.296 60.075-55.296s58.027 24.576 60.075 55.296c48.469 0.683 88.064 40.96 88.064 89.429v501.76c0 49.152-40.277 89.429-89.429 89.429zM615.765 729.259h-206.848v76.459c0 24.576 19.797 44.373 44.373 44.373h118.101c24.576 0 44.373-19.797 44.373-44.373v-76.459z" />
<glyph unicode="&#xe90c;" glyph-name="calendargo" d="M621.909 473.941l160.427-129.024c7.509-6.144 11.605-15.019 11.605-24.576s-4.096-18.432-12.288-24.576l-160.427-126.293c-13.653-10.923-33.451-8.192-43.691 5.461-10.923 13.653-8.192 33.451 5.461 43.691l89.429 70.315h-414.379c-17.067 0-31.403 14.336-31.403 31.403s14.336 31.403 31.403 31.403h415.744l-90.795 73.045c-12.971 11.605-14.336 31.403-2.731 44.373 10.24 12.288 28.672 14.336 41.643 4.779v0zM0 785.92v-737.28c0-45.056 36.864-81.92 81.92-81.92h860.16c45.056 0 81.92 36.864 81.92 81.92v737.28c0 45.056-36.864 81.92-81.92 81.92h-163.84v40.96c0 11.605-8.875 20.48-20.48 20.48s-20.48-8.875-20.48-20.48v-40.96h-450.56v40.96c0 11.605-8.875 20.48-20.48 20.48s-20.48-8.875-20.48-20.48v-40.96h-163.84c-45.056 0-81.92-36.864-81.92-81.92zM40.96 622.080h942.080v-573.44c0-22.528-18.432-40.96-40.96-40.96h-860.16c-22.528 0-40.96 18.432-40.96 40.96v573.44zM40.96 785.92c0 22.528 18.432 40.96 40.96 40.96h163.84v-46.421c-19.797-11.605-26.624-36.181-15.019-55.979s36.181-26.624 55.979-15.019c19.797 11.605 26.624 36.181 15.019 55.979-3.413 6.144-8.875 11.605-15.019 15.019v46.421h450.56v-46.421c-19.797-11.605-26.624-36.181-15.019-55.979s36.181-26.624 55.979-15.019c19.797 11.605 26.624 36.181 15.019 55.979-3.413 6.144-8.875 11.605-15.019 15.019v46.421h163.84c22.528 0 40.96-18.432 40.96-40.96v-122.88h-942.080v122.88z" />
<glyph unicode="&#xe90d;" glyph-name="calendarreturn" d="M402.091 473.941l-160.427-129.024c-7.509-6.144-11.605-15.019-11.605-24.576s4.096-18.432 12.288-24.576l160.427-126.293c13.653-10.923 33.451-8.192 43.691 5.461 10.923 13.653 8.192 33.451-5.461 43.691v0l-89.429 70.315h414.379c17.067 0 31.403 14.336 31.403 31.403s-14.336 31.403-31.403 31.403h-415.744l91.477 73.045c12.971 11.605 14.336 31.403 2.731 44.373-10.923 12.288-29.355 14.336-42.325 4.779v0zM942.080 867.84h-163.84v40.96c0 11.605-8.875 20.48-20.48 20.48s-20.48-8.875-20.48-20.48v-40.96h-450.56v40.96c0 11.605-8.875 20.48-20.48 20.48s-20.48-8.875-20.48-20.48v-40.96h-163.84c-45.056 0-81.92-36.864-81.92-81.92v-737.28c0-45.056 36.864-81.92 81.92-81.92h860.16c45.056 0 81.92 36.864 81.92 81.92v737.28c0 45.056-36.864 81.92-81.92 81.92zM983.040 48.64c0-22.528-18.432-40.96-40.96-40.96h-860.16c-22.528 0-40.96 18.432-40.96 40.96v573.44h942.080v-573.44zM983.040 663.040h-942.080v122.88c0 22.528 18.432 40.96 40.96 40.96h163.84v-46.421c-19.797-11.605-26.624-36.181-15.019-55.979s36.181-26.624 55.979-15.019c19.797 11.605 26.624 36.181 15.019 55.979-3.413 6.144-8.875 11.605-15.019 15.019v46.421h450.56v-46.421c-19.797-11.605-26.624-36.181-15.019-55.979s36.181-26.624 55.979-15.019c19.797 11.605 26.624 36.181 15.019 55.979-3.413 6.144-8.875 11.605-15.019 15.019v46.421h163.84c22.528 0 40.96-18.432 40.96-40.96v-122.88z" />
<glyph unicode="&#xe90e;" glyph-name="cancel" d="M874.496 809.813c-200.021 200.021-524.288 200.021-724.309 0.683-200.021-200.021-200.021-524.288-0.683-724.309 200.021-200.021 524.288-200.021 724.309-0.683 0 0 0 0 0.683 0.683 199.339 200.021 199.339 523.605 0 723.627zM717.483 243.2v0c-23.893-23.893-61.44-23.893-84.651 0l-120.149 120.149-120.149-119.467c-23.211-23.211-61.44-23.211-84.651 0s-23.211 61.44 0 84.651l119.467 119.467-119.467 120.149c-23.211 23.211-23.211 61.44 0 84.651s61.44 23.211 84.651 0l120.149-120.149 119.467 120.149c23.211 23.211 61.44 23.211 84.651 0s23.211-61.44 0-84.651l-120.149-120.149 120.149-120.149c23.893-23.211 23.893-60.757 0.683-84.651z" />
<glyph unicode="&#xe90f;" glyph-name="card" d="M915.456 811.179h-808.277c-58.709 0-107.179-47.787-107.179-107.179v-516.096c0-59.392 48.469-107.179 107.179-107.179h807.595c59.392 0 107.179 48.469 107.179 107.179v516.096c0.683 59.392-47.787 107.179-106.496 107.179zM32.085 704c0 41.643 33.451 75.093 75.093 75.093h807.595c41.643 0 75.093-33.451 75.093-75.093v-21.845h-957.781v21.845zM990.549 187.904c0-41.643-33.451-75.093-75.093-75.093h-808.277c-41.643 0-75.093 33.451-75.093 75.093v311.979h958.464v-311.979zM103.083 245.931h302.421c6.144 0 10.923 2.731 14.336 8.192 2.731 4.779 2.731 10.923 0 16.384-2.731 4.779-8.192 8.192-14.336 8.192h-302.421c-6.144 0-10.923-2.731-14.336-8.192-2.731-4.779-2.731-10.923 0-16.384 3.413-5.461 8.875-8.192 14.336-8.192zM693.589 182.443h178.176c21.845 0 39.595 17.749 39.595 39.595v112.64c0 21.845-17.749 39.595-39.595 39.595h-178.176c-21.845 0-39.595-17.749-39.595-39.595v-111.957c0-22.528 18.432-40.277 39.595-40.277z" />
<glyph unicode="&#xe910;" glyph-name="Chain" d="M963.038 20.241c-3.216 4.079-8.116 6.707-13.634 6.826h-12.922v696.32c0.008 0.122 0.012 0.266 0.012 0.41s-0.004 0.287-0.013 0.429c0.001 15.75-43.144 28.584-96.323 28.584s-96.324-12.834-96.324-28.604c-0.008-0.133-0.012-0.288-0.012-0.444s0.005-0.311 0.013-0.465l-0.001 0.021v-696.32h-23.279v850.466h-0.614c0.017 0.245 0.026 0.531 0.026 0.819s-0.010 0.574-0.028 0.858c0.002 14.093-36.725 26.79-77.344 35.392-2.116 13.995-17.749 24.986-36.932 24.986h-178.176c-19.183 0-34.816-10.786-37.069-24.713-40.96-8.602-77.346-21.299-77.346-35.43 0.081-0.676 0.201-1.278 0.362-1.863l-0.021 0.088v-850.466h-23.893v696.32c0.008 0.133 0.012 0.288 0.012 0.444s-0.005 0.311-0.013 0.465c0.001 15.748-43.075 28.582-96.323 28.582s-96.324-12.766-96.324-28.604c-0.008-0.122-0.012-0.266-0.012-0.41s0.004-0.287 0.013-0.429l-0.001 0.019v-696.32h-12.971c-5.537-0.12-10.437-2.748-13.625-6.789-3.178-3.998-5.082-9.072-5.082-14.591 0-0.092 0.001-0.183 0.002-0.274v-28.931c-0.001-0.077-0.001-0.169-0.001-0.261 0-5.519 1.904-10.593 5.090-14.601 3.179-4.031 8.079-6.659 13.597-6.778h865.026c5.537 0.12 10.437 2.748 13.625 6.789 3.219 4.013 5.149 9.119 5.149 14.676 0 0.062 0 0.123-0.001 0.185v28.936c0.005 0.187 0.008 0.406 0.008 0.626 0 5.293-1.746 10.179-4.694 14.112zM227.738 163.601c0-10.632-8.619-19.251-19.251-19.251h-30.993c-10.632 0-19.251 8.619-19.251 19.251v30.925c0.077 10.573 8.667 19.115 19.251 19.115 0 0 0 0 0.001 0h30.925c10.632 0 19.251-8.619 19.251-19.251zM227.738 317.679c0-10.632-8.619-19.251-19.251-19.251h-30.993c-10.632 0-19.251 8.619-19.251 19.251v30.788c0 10.632 8.619 19.251 19.251 19.251h30.925c10.632 0 19.251-8.619 19.251-19.251zM227.738 471.757c0-10.632-8.619-19.251-19.251-19.251h-30.993c-10.632 0-19.251 8.619-19.251 19.251v30.857c0.039 10.603 8.643 19.183 19.251 19.183 0 0 0 0 0 0h30.925c0.041 0 0.089 0 0.137 0 10.608 0 19.213-8.58 19.251-19.18zM227.738 625.835c0-10.632-8.619-19.251-19.251-19.251h-30.993c-10.426 0.113-18.856 8.496-19.046 18.892v31.147c0.038 10.531 8.526 19.068 19.035 19.183h30.936c10.632 0 19.251-8.619 19.251-19.251zM454.929 163.123c0-10.632-8.619-19.251-19.251-19.251h-30.857c-10.632 0-19.251 8.619-19.251 19.251v30.857c0 10.632 8.619 19.251 19.251 19.251h30.857c10.632 0 19.251-8.619 19.251-19.251zM454.929 317.201c0-0.041 0-0.089 0-0.137 0-10.608-8.58-19.213-19.18-19.251h-30.928c-10.632 0-19.251 8.619-19.251 19.251v30.925c0 10.632 8.619 19.251 19.251 19.251h30.857c10.632 0 19.251-8.619 19.251-19.251zM454.929 471.279c0-10.632-8.619-19.251-19.251-19.251h-30.857c-10.632 0-19.251 8.619-19.251 19.251v30.788c0 10.632 8.619 19.251 19.251 19.251h30.857c10.632 0 19.251-8.619 19.251-19.251zM454.929 625.357c0-10.632-8.619-19.251-19.251-19.251h-30.857c0 0 0 0 0 0-10.632 0-19.251 8.619-19.251 19.251 0 0.048 0 0.096 0.001 0.144v30.644c0.039 10.603 8.643 19.183 19.251 19.183 0 0 0 0 0 0h30.857c10.632 0 19.251-8.619 19.251-19.251zM454.929 779.435c0-10.632-8.619-19.251-19.251-19.251h-30.857c-10.632 0-19.251 8.619-19.251 19.251v30.788c0 10.632 8.619 19.251 19.251 19.251h30.857c10.632 0 19.251-8.619 19.251-19.251zM556.646 48.162c0-10.632-8.619-19.251-19.251-19.251h-42.394c-8.521 0-15.428 6.907-15.428 15.428v53.931c0.116 8.432 6.978 15.223 15.427 15.223 0 0 0.001 0 0.001 0h46.216c8.491-0.039 15.36-6.931 15.36-15.428 0 0 0 0 0 0zM647.578 163.123c0-0.021 0-0.046 0-0.070 0-10.632-8.619-19.251-19.251-19.251-0.096 0-0.192 0.001-0.288 0.002h-30.637c-10.632 0-19.251 8.619-19.251 19.251v30.857c0 10.632 8.619 19.251 19.251 19.251h30.652c10.632 0 19.251-8.619 19.251-19.251zM647.578 317.201c0-0.041 0-0.090 0-0.138 0-10.632-8.619-19.251-19.251-19.251-0.096 0-0.192 0.001-0.288 0.002h-30.637c-10.632 0-19.251 8.619-19.251 19.251v30.925c0 10.632 8.619 19.251 19.251 19.251h30.652c10.632 0 19.251-8.619 19.251-19.251zM647.578 471.279c0-0.021 0-0.046 0-0.070 0-10.632-8.619-19.251-19.251-19.251-0.096 0-0.192 0.001-0.288 0.002h-30.637c-10.632 0-19.251 8.619-19.251 19.251v30.857c0 10.632 8.619 19.251 19.251 19.251h30.652c10.632 0 19.251-8.619 19.251-19.251zM647.578 625.357c0-0.041 0-0.090 0-0.138 0-10.632-8.619-19.251-19.251-19.251-0.096 0-0.192 0.001-0.288 0.002h-30.637c-10.604 0.038-19.185 8.642-19.185 19.251 0 0.096 0.001 0.192 0.002 0.288v30.637c0 10.632 8.619 19.251 19.251 19.251h30.583c10.632 0 19.251-8.619 19.251-19.251zM647.578 779.435c0-0.021 0-0.046 0-0.070 0-10.632-8.619-19.251-19.251-19.251-0.096 0-0.192 0.001-0.288 0.002h-30.637c-10.632 0-19.251 8.619-19.251 19.251v30.857c0 10.632 8.619 19.251 19.251 19.251h30.652c10.632 0 19.251-8.619 19.251-19.251zM874.701 163.601c0-10.632-8.619-19.251-19.251-19.251h-30.925c-10.632 0-19.251 8.619-19.251 19.251v50.176h50.108c10.632 0 19.251-8.619 19.251-19.251zM874.701 317.679c0-10.632-8.619-19.251-19.251-19.251h-30.925c-10.467 0.153-18.903 8.636-18.978 19.107v50.183h50.108c10.632 0 19.251-8.619 19.251-19.251zM874.701 471.757c0-10.632-8.619-19.251-19.251-19.251h-30.925c-10.467 0.153-18.903 8.636-18.978 19.107v50.183h50.108c10.52-0.115 19.008-8.652 19.046-19.179zM874.701 625.835c0-10.632-8.619-19.251-19.251-19.251h-30.925c-10.396 0.15-18.789 8.519-18.978 18.892v50.33h50.108c10.632 0 19.251-8.619 19.251-19.251z" />
<glyph unicode="&#xe911;" glyph-name="changeairport" d="M524.971 535.381c13.653 50.517 72.363 92.16 131.072 92.16h133.803v-96.939c0-22.528 10.24-30.037 17.067-32.768 10.923-4.096 23.893 0 34.816 10.923l172.032 166.571c6.144 6.144 10.24 15.019 10.24 23.893s-3.413 17.749-10.24 23.893l-172.032 166.571c-11.605 11.605-24.576 15.701-34.816 10.923-6.144-2.731-17.067-10.24-17.067-32.768v-83.968h-133.803c-129.024 0-250.539-89.429-282.624-207.531l-47.104-167.253c-17.067-62.805-85.333-131.072-131.072-131.072h-160.427c-18.432 0-33.451-15.019-33.451-33.451v-90.112c0-18.432 15.019-33.451 33.451-33.451h159.744c129.707 0 250.539 127.659 282.624 246.443l47.787 167.936zM39.595 636.416h155.648c48.469 0 103.765-38.229 124.928-84.651l10.24 36.864c12.288 45.056 35.499 86.016 66.219 120.832-55.979 53.248-129.707 83.968-201.387 83.968h-155.648c-18.432 0-33.451-15.019-33.451-33.451v-90.112c0-18.432 15.019-33.451 33.451-33.451zM841.728 413.867c-11.605 11.605-24.576 15.701-35.499 10.923-6.144-2.731-17.067-10.24-17.067-32.768v-90.795h-133.12c-49.835 0-105.813 39.595-126.293 87.381l-9.557-32.768c-11.605-43.008-33.451-88.064-63.488-128.341 56.661-52.565 128.341-82.603 199.339-82.603h133.803v-90.112c0-22.528 10.923-30.037 17.067-32.768 2.731-1.365 6.144-2.048 8.875-2.048 8.875 0 17.749 4.096 25.941 12.971l172.032 166.571c6.144 6.144 9.557 15.019 10.24 23.893 0 8.875-3.413 17.749-10.24 23.893l-172.032 166.571z" />
<glyph unicode="&#xe912;" glyph-name="check_empty" d="M931.157 75.947c0-25.941-21.163-46.421-46.421-46.421v0h-744.789c-25.941 0-46.421 21.163-46.421 46.421v0 744.789c0 25.941 21.163 46.421 46.421 46.421h744.789c25.941 0 46.421-21.163 46.421-46.421 0 0 0 0 0 0v-744.789zM884.736 960h-744.789c-77.141 0-139.947-62.805-139.947-139.264v-744.789c0-77.141 62.805-139.947 139.947-139.947h744.789c77.141 0 139.264 62.805 139.264 139.264v745.472c0 76.459-62.805 139.264-139.264 139.264z" />
<glyph unicode="&#xe913;" glyph-name="check_in_2" d="M903.851 4.949h-550.229c-12.288 0-21.845 10.24-21.845 21.845v232.107c0 12.288 10.24 21.845 21.845 21.845s21.845-10.24 21.845-21.845v-210.261h505.856v798.037h-505.173v-202.069c0-12.288-10.24-21.845-21.845-21.845s-21.845 10.24-21.845 21.845v223.915c0 12.288 10.24 21.845 21.845 21.845h550.229c12.288 0 21.845-10.24 21.845-21.845v-841.045c-0.683-12.288-10.24-22.528-22.528-22.528zM138.581 469.845h320.853l-62.123 63.488c-9.557 9.557-9.557 24.576-0.683 34.816s24.576 9.557 34.816 0.683l103.083-103.083c2.731-2.048 4.096-4.779 4.779-7.509v0c0-6.144 2.731-12.288 0.683-18.432-1.365-2.731-2.731-5.461-4.779-8.192l-103.765-104.448c-9.557-9.557-24.576-9.557-34.133 0 0 0 0 0 0 0-8.875 8.875-9.557 23.211-0.683 32.768 0 0 0 0 0.683 0.683l62.123 61.44h-320.853c-12.971 0-23.893 10.923-23.893 23.893s10.923 23.893 23.893 23.893v0zM771.413 409.771c-12.971 0-23.893 10.923-23.893 23.893v27.989c-1.365 12.971 8.192 25.259 21.163 26.624s25.259-8.192 26.624-21.163c0-1.365 0-3.413 0-4.779v-27.989c0-13.653-10.923-24.576-23.893-24.576z" />
<glyph unicode="&#xe914;" glyph-name="check_in" d="M670.379 4.949h-550.229c-12.288 0-21.845 10.24-21.845 21.845v841.728c0 12.288 10.24 21.845 21.845 21.845h550.229c12.288 0 21.845-10.24 21.845-21.845v-223.915c0-12.288-10.24-21.845-21.845-21.845s-21.845 10.24-21.845 21.845v202.069h-505.856v-796.672h505.856v210.261c0 12.288 10.24 21.845 21.845 21.845s21.845-10.24 21.845-21.845v-232.107c0-12.971-9.557-23.211-21.845-23.211 0 0 0 0 0 0zM485.376 457.557c1.365 2.731 3.413 5.461 5.461 8.192l103.765 103.765c9.557 8.875 24.576 8.875 34.133 0 9.557-9.557 9.557-25.259 0-35.499l-62.123-64.171h320.853c12.971 0 23.893-10.923 23.893-23.893s-10.923-23.893-23.893-23.893h-320.853l62.123-61.44c9.557-8.875 9.557-23.893 0-33.451-4.779-4.779-10.923-6.827-17.067-6.827s-12.288 2.731-17.067 7.509l-104.448 103.083c-2.048 2.048-6.144 4.779-6.144 8.192v0c-6.144 5.461-1.365 12.288 1.365 18.432zM252.587 409.771c-12.971 0-23.893 10.923-23.893 23.893v27.989c-1.365 12.971 8.192 25.259 21.163 26.624s25.259-8.192 26.624-21.163c0-1.365 0-3.413 0-4.779v-27.989c0-13.653-10.923-24.576-23.893-24.576z" />
<glyph unicode="&#xe915;" glyph-name="check_out_2" d="M903.851 4.949h-550.229c-12.288 0-21.845 10.24-21.845 21.845v232.107c0 12.288 10.24 21.845 21.845 21.845s21.845-10.24 21.845-21.845v-210.261h505.856v798.037h-505.173v-202.069c0-12.288-10.24-21.845-21.845-21.845s-21.845 10.24-21.845 21.845v223.915c0 12.288 10.24 21.845 21.845 21.845h550.229c12.288 0 21.845-10.24 21.845-21.845v-841.045c-0.683-12.288-10.24-22.528-22.528-22.528zM516.779 469.845h-320.853l62.123 63.488c9.557 9.557 9.557 24.576 0.683 34.816s-24.576 9.557-34.816 0.683l-103.083-103.765c-2.048-2.048-4.779-4.779-4.779-7.509v0c0-6.144-2.731-12.288 0-18.432 1.365-2.731 2.731-5.461 5.461-8.192l103.083-103.765c9.557-9.557 24.576-9.557 34.133 0 0 0 0 0 0 0 8.875 8.875 9.557 23.211 0.683 32.768 0 0 0 0-0.683 0.683l-62.123 61.44h320.853c12.971 0 23.893 10.923 23.893 23.893s-11.605 23.893-24.576 23.893v0zM771.413 409.771c-12.971 0-23.893 10.923-23.893 23.893v27.989c-1.365 12.971 8.192 25.259 21.163 26.624s25.259-8.192 26.624-21.163c0-1.365 0-3.413 0-4.779v-27.989c0-13.653-10.923-24.576-23.893-24.576z" />
<glyph unicode="&#xe916;" glyph-name="check_out" d="M670.379 4.949h-550.229c-12.288 0-21.845 10.24-21.845 21.845v841.728c0 12.288 10.24 21.845 21.845 21.845h550.229c12.288 0 21.845-10.24 21.845-21.845v-223.915c0-12.288-10.24-21.845-21.845-21.845s-21.845 10.24-21.845 21.845v202.069h-505.856v-796.672h505.856v210.261c0 12.288 10.24 21.845 21.845 21.845s21.845-10.24 21.845-21.845v-232.107c0-12.971-9.557-23.211-21.845-23.211 0 0 0 0 0 0zM907.947 457.557c-1.365 2.731-2.731 5.461-4.779 8.192l-103.083 103.765c-9.557 9.557-24.576 9.557-34.133 0s-9.557-25.259 0-35.499l62.123-63.488h-320.853c-12.971 0-23.893-10.923-23.893-23.893s10.923-23.893 23.893-23.893h320.853l-62.123-61.44c-9.557-8.875-9.557-23.893 0-33.451 4.779-4.779 10.923-6.827 17.067-6.827s12.288 2.731 17.067 7.509l102.4 103.765c2.731 2.048 4.096 4.779 4.096 8.192v0c7.509 4.096 4.096 10.923 1.365 17.067zM249.856 488.277c-12.971-1.365-22.528-12.971-21.163-26.624v-27.989c0-12.971 10.923-23.893 23.893-23.893s23.893 10.923 23.893 23.893v27.989c0 1.365 0 3.413 0 4.779-1.365 13.653-13.653 23.211-26.624 21.845z" />
<glyph unicode="&#xe917;" glyph-name="check" d="M931.157 75.947c0-25.941-21.163-46.421-46.421-46.421v0h-744.789c-25.941 0-46.421 21.163-46.421 46.421v0 744.789c0 25.941 21.163 46.421 46.421 46.421h744.789c25.941 0 46.421-21.163 46.421-46.421 0 0 0 0 0 0v-744.789zM884.736 960h-744.789c-77.141 0-139.947-62.805-139.947-139.264v-744.789c0-77.141 62.805-139.947 139.947-139.947h744.789c77.141 0 139.264 62.805 139.264 139.264v745.472c0 76.459-62.805 139.264-139.264 139.264zM803.499 649.387c-24.576 24.576-64.853 24.576-89.429 0 0 0 0 0 0 0l-268.971-268.288-134.485 133.803c-24.576 24.576-64.853 24.576-89.429 0s-24.576-64.853 0-89.429l178.859-178.859c24.576-24.576 64.853-24.576 89.429 0 0 0 0 0 0 0l314.027 314.027c24.576 23.893 24.576 64.171 0 88.747z" />
<glyph unicode="&#xe918;" glyph-name="check1" d="M993.28 782.507c-40.96 40.96-107.179 40.96-148.139 0v0l-444.416-444.416-222.549 221.867c-40.96 40.96-107.179 40.96-148.139 0s-40.96-107.179 0-148.139l296.277-296.277c40.96-40.96 107.179-40.96 148.139 0v0l518.144 518.144c41.643 41.643 41.643 107.861 0.683 148.821z" />
<glyph unicode="&#xe919;" glyph-name="phone" d="M342.016 555.179l88.064 65.536c19.797 15.019 25.941 42.325 14.336 64.171l-108.544 200.704c-10.923 20.48-34.816 30.72-57.344 24.576l-167.253-43.691c-42.325-10.923-66.901-55.979-52.565-97.621 35.499-101.717 120.832-288.085 307.2-474.453 185.685-185.685 372.736-271.019 474.453-307.2 41.643-14.336 86.699 9.557 97.621 52.565l43.691 167.253c6.144 22.528-4.096 45.739-24.576 57.344l-201.387 108.544c-21.845 11.605-49.152 6.144-64.171-14.336l-65.536-87.381c-17.067-22.528-49.152-27.307-70.997-9.557-38.912 30.72-78.507 64.853-118.101 104.448s-73.728 79.189-104.448 117.419c-17.067 22.528-12.971 54.613 9.557 71.68z" />
<glyph unicode="&#xe91a;" glyph-name="PowerSource" d="M515.413 915.627c266.24 0 481.28-215.040 481.28-480.597 0-230.059-180.907-490.837-468.309-454.656-40.277 5.461-54.613 53.931-54.613 91.477v115.371h-2.048c-86.699 0-157.013 70.997-157.013 157.013v137.216c0 21.845 17.749 39.595 39.595 39.595h19.797v139.264c0 20.48 17.067 37.547 37.547 37.547v0c20.48 0 37.547-17.067 37.547-37.547v-139.264h145.408v139.264c0 20.48 17.067 37.547 37.547 37.547v0c20.48 0 37.547-17.067 37.547-37.547v-139.264h19.797c21.845 0 39.595-17.749 39.595-39.595v-137.216c0-86.699-70.997-157.013-157.013-157.013h-2.048c0-97.621-13.653-141.312 102.4-104.448 25.259 8.192 46.421 19.797 62.805 30.037 103.083 69.632 171.349 187.733 171.349 321.536 0 214.357-173.397 388.437-388.437 388.437s-391.168-174.080-391.168-388.437c0-146.773 81.237-274.432 201.387-340.651v-2.048c40.277-17.749 68.949-45.739 54.613-77.824-12.288-27.989-43.008-24.576-54.613-22.528v-0.683c-1.365 0.683-2.731 1.365-4.096 2.048v0h-0.683c-12.288 5.461-23.893 10.923-35.499 17.067v0 0c-150.869 81.237-253.952 240.981-253.952 424.619 0 265.557 215.040 481.28 481.28 481.28v0z" />
<glyph unicode="&#xe91b;" glyph-name="CircleArrowRight" d="M512 951.125c-277.845 0-503.125-225.28-503.125-503.125s225.28-503.125 503.125-503.125 503.125 225.28 503.125 503.125-225.28 503.125-503.125 503.125zM836.267 436.395c-0.683-1.365-1.365-2.731-1.365-5.461 0-2.048-0.683-4.096-1.365-6.144s-2.048-4.096-2.731-5.461c-0.683-1.365-1.365-3.413-2.731-4.096-2.048-3.413-4.779-6.144-7.509-8.875l-188.416-188.416c-22.528-20.48-56.661-20.48-79.189 0-24.576 21.845-25.941 59.392-4.096 83.968l86.016 87.381h-389.12c0 0 0 0 0 0-32.768 0-58.709 26.624-58.709 58.709 0 32.768 26.624 58.709 58.709 58.709h389.12l-86.699 87.381c-20.48 22.528-20.48 56.661 0 79.189 21.845 24.576 59.392 25.941 83.968 4.096l188.416-188.416c2.731-2.731 5.461-5.461 7.509-8.875 0.683-1.365 1.365-3.413 2.731-4.096 1.365-2.048 2.048-3.413 2.731-5.461s0.683-4.096 2.048-5.461c0.683-1.365 1.365-3.413 1.365-5.461 0.683-7.509 0.683-15.019-0.683-23.211z" />
<glyph unicode="&#xe91c;" glyph-name="TV" d="M966.315 809.13h-908.629c-17.067 0-30.72-13.653-30.72-30.72v-578.219c0-17.067 13.653-30.72 30.72-30.72h908.629c17.067 0 30.72 13.653 30.72 30.72v577.536c0 17.067-13.653 31.403-30.72 31.403zM934.913 747.007v-516.096h-846.507v516.096h846.507zM698.027 148.309h-372.053c-17.067 0-30.72-13.653-30.72-30.72s13.653-30.72 30.72-30.72h372.053c17.067 0 30.72 13.653 30.72 30.72 0 16.384-13.653 30.72-30.72 30.72zM449.537 354.474c6.827 0 13.653 2.731 18.432 6.144l165.205 103.083c8.192 6.144 12.288 15.019 12.288 24.576 0 12.288-7.509 23.893-19.797 28.672l-158.379 100.352c-21.845 15.019-48.469-2.048-48.469-25.259v-206.848c0-16.384 13.653-30.72 30.72-30.72z" />
<glyph unicode="&#xe91d;" glyph-name="CircleArrowUp" d="M8.875 448c0-277.845 225.28-503.125 503.125-503.125s503.125 225.28 503.125 503.125-225.28 503.125-503.125 503.125-503.125-225.28-503.125-503.125zM522.923 772.267c1.365-0.683 2.731-1.365 5.461-1.365 2.048 0 4.096-0.683 6.144-1.365s4.096-2.048 5.461-2.731c1.365-0.683 3.413-1.365 4.096-2.731 3.413-2.048 6.144-4.779 8.875-7.509l188.416-188.416c20.48-22.528 20.48-56.661 0-79.189-21.845-24.576-59.392-25.941-83.968-4.096l-86.699 86.016v-389.12c0 0 0 0 0 0 0-32.768-26.624-58.709-58.709-58.709-32.768 0-58.709 26.624-58.709 58.709v389.12l-87.381-86.699c-22.528-20.48-56.661-20.48-79.189 0-24.576 21.845-25.941 59.392-4.096 83.968l188.416 188.416c2.731 2.731 5.461 5.461 8.875 7.509 1.365 0.683 3.413 1.365 4.096 2.731 2.048 1.365 3.413 2.048 5.461 2.731s4.096 0.683 5.461 2.048c1.365 0.683 3.413 1.365 5.461 1.365 7.509 0.683 15.019 0.683 22.528-0.683z" />
<glyph unicode="&#xe91e;" glyph-name="Videoplayer" d="M512 925.867c-267.605 0-484.693-217.088-484.693-484.693s217.088-484.693 484.693-484.693c266.923 0 484.693 217.088 484.693 484.693s-217.771 484.693-484.693 484.693zM512 32.256c-225.28 0-408.917 183.637-408.917 408.917s183.637 408.917 408.917 408.917c225.28 0 408.917-183.637 408.917-408.917s-183.637-408.917-408.917-408.917zM721.579 465.749l-304.469 177.493c-23.211 13.653-41.643 2.731-41.643-23.893v-355.669c0-26.624 19.115-37.547 41.643-23.893l304.469 177.493c23.211 12.971 23.211 34.816 0 48.469z" />
<glyph unicode="&#xe91f;" glyph-name="Contact_Phone" d="M584.841 377.139c-89.907-89.907-194.014-175.855-235.179-134.69-58.914 58.914-95.573 110.251-225.28 5.871s-30.106-174.012 26.965-231.151c65.877-65.877 311.433-3.482 554.121 238.933s305.084 488.311 238.933 554.189c-57.071 57.071-126.703 157.013-231.083 26.897s-53.111-166.229 5.803-225.28c41.574-41.028-44.305-144.862-134.281-234.769z" />
<glyph unicode="&#xe920;" glyph-name="destination_pin" d="M886.101 587.947c-2.731 206.848-172.715 372.053-378.88 369.323-202.752-3.413-366.592-167.253-369.323-369.323 0-86.699 30.72-171.349 86.016-237.568l288.085-414.379 292.181 419.84c10.24 12.971 20.48 26.624 28.672 41.643l2.731 4.096h-0.683c33.451 56.661 51.2 120.832 51.2 186.368zM691.541 587.947c0.683-103.083-82.603-187.733-186.368-187.733s-187.051 82.603-187.733 185.685c-0.683 103.083 82.603 187.733 186.368 187.733 0.683 0 0.683 0 1.365 0 103.083 0.683 187.051-82.603 186.368-185.685z" />
<glyph unicode="&#xe921;" glyph-name="Details" d="M282.283 711.168h216.474c0.020 0 0.044 0 0.068 0 13.573 0 24.576 11.003 24.576 24.576 0 0 0 0 0 0v13.653c0 0 0 0 0 0 0 13.573-11.003 24.576-24.576 24.576-0.024 0-0.048 0-0.072 0h-216.47c-0.020 0-0.044 0-0.068 0-13.573 0-24.576-11.003-24.576-24.576 0 0 0 0 0 0v-13.653c0 0 0 0 0 0 0-13.573 11.003-24.576 24.576-24.576 0.024 0 0.048 0 0.072 0zM282.214 624.469h216.542c13.573 0 24.576-11.003 24.576-24.576v-13.585c0-13.573-11.003-24.576-24.576-24.576h-216.542c-13.573 0-24.576 11.003-24.576 24.576v13.585c0 13.573 11.003 24.576 24.576 24.576zM282.283 176.23h463.735c13.573 0 24.576-11.003 24.576-24.576v-13.653c0-13.573-11.003-24.576-24.576-24.576h-463.735c-13.611 0-24.644 11.034-24.644 24.644v13.653c0 13.611 11.034 24.644 24.644 24.644zM865.075 671.095l-217.293 217.225c-22.667 20.438-52.321 33.519-84.984 35.279l-340.932 0.015c-51.885-0.078-93.926-42.118-94.003-93.996v-769.987c0.116-51.856 42.142-93.857 93.996-93.935h584.507c51.885 0.078 93.926 42.118 94.003 93.996v526.139c-1.803 32.985-14.878 62.61-35.404 85.389zM806.366 19.763h-584.499c0 0 0 0 0 0-22.032 0-39.897 17.841-39.936 39.864v769.984c0.039 22.040 17.896 39.897 39.932 39.936h367.961v-162.133c0.078-51.885 42.118-93.926 93.996-94.003h162.687v-553.574c0-0.041 0-0.089 0-0.137 0-22.056-17.88-39.936-39.936-39.936-0.072 0-0.144 0-0.216 0.001zM282.283 475.307h463.735c13.611 0 24.644-11.034 24.644-24.644v-13.653c0-13.573-11.003-24.576-24.576-24.576h-463.804c-13.611 0-24.644 11.034-24.644 24.644v13.653c0.039 13.581 11.058 24.576 24.644 24.576 0 0 0 0 0 0zM282.283 325.666h463.735c13.611 0 24.644-11.034 24.644-24.644v-13.653c0-13.611-11.034-24.644-24.644-24.644h-463.735c-13.611 0-24.644 11.034-24.644 24.644v13.653c0 13.573 11.003 24.576 24.576 24.576z" />
<glyph unicode="&#xe922;" glyph-name="done" d="M1019.904 470.528c-12.288 280.576-250.539 497.664-531.115 485.376-279.893-12.971-497.664-250.539-484.693-531.115s250.539-497.664 531.115-485.376c279.893 12.971 497.664 250.539 484.693 531.115zM823.296 551.765l-359.083-359.083c-18.432-18.432-48.469-18.432-66.219 0l-195.243 194.56c-27.989 27.989-27.989 73.045 0 101.035s73.045 27.989 101.035 0l127.659-127.659 291.499 292.181c27.989 27.989 73.045 27.989 101.035 0 27.307-27.989 27.307-73.045-0.683-101.035z" />
<glyph unicode="&#xe923;" glyph-name="door_exit" d="M705.195 346.283c-12.971 0-23.893-10.24-23.893-23.893v-135.168c0-5.461-2.731-10.923-8.875-10.923h-148.139v534.528c0.683 21.163-10.24 40.96-28.672 51.883l-273.067 150.869h450.56c5.461 0 8.875-6.827 8.875-12.288v-238.251c0-12.971 10.923-23.893 23.893-23.893s23.893 10.923 23.893 23.893v238.251c0 32.085-24.576 60.757-56.661 60.757h-509.269c-32.085 0-55.979-28.672-55.979-60.757v-700.416c-0.683-37.547 19.797-72.363 52.565-90.795l305.835-167.253c6.144-3.413 12.288-4.779 19.115-4.779s13.653 2.048 19.115 5.461c12.288 7.509 19.115 21.163 18.432 34.816v150.187h148.139c32.085 0.683 57.344 27.307 56.661 58.709v135.851c1.365 12.971-8.875 23.211-22.528 23.211zM476.501 710.827v-721.579l-294.229 161.792c-17.067 10.24-27.989 29.355-26.624 49.152v694.955l318.123-174.763c3.413-2.048 2.731-5.461 2.731-9.557zM377.515 463.019c-12.971 0-23.893-10.24-23.893-23.893v-27.989c0-12.971 10.923-23.893 23.893-23.893s23.893 10.923 23.893 23.893v27.989c0 12.971-10.24 23.893-23.893 23.893zM912.725 502.613c-1.365 2.731-3.413 5.461-5.461 7.509l-102.4 102.4c-4.096 4.779-10.24 7.509-17.067 7.509v0c-6.144 0-12.288-2.731-17.067-7.509-9.557-9.557-9.557-23.893 0-33.451l61.44-61.44h-240.981c-12.971 0-23.893-10.923-23.893-23.893s10.923-23.893 23.893-23.893v0h240.981l-61.44-61.44c-8.875-9.557-8.875-24.576 0-33.451 9.557-9.557 24.576-9.557 33.451 0 0 0 0 0 0 0l101.035 101.717 1.365 2.048c0 1.365 0 3.413 6.827 5.461v0c1.365 6.144 0.683 12.288-0.683 18.432z" />
<glyph unicode="&#xe924;" glyph-name="Edit_Cancel_Booking" d="M792.986 925.184c-0.365 0.011-0.794 0.017-1.224 0.017-11.842 0-22.621-4.548-30.687-11.991l-470.531-470.534c-11.947-11.947-19.934-23.893-19.934-39.868l-39.868-187.392c-0.96-2.913-1.513-6.265-1.513-9.747 0-10.744 5.269-20.257 13.365-26.096 6.744-7.423 16.321-12.027 26.974-12.027 0.366 0 0.731 0.005 1.095 0.016l7.934-0.001 187.392 35.908c15.241 4.526 28.511 11.341 40.182 20.161l470.043 474.226c7.416 8.035 11.963 18.815 11.963 30.656 0 0.43-0.006 0.86-0.018 1.287-11.491 102.833-92.311 183.746-194.163 195.292zM868.762 486.571c-0.673 0.043-1.46 0.067-2.252 0.067-20.812 0-37.683-16.871-37.683-37.683 0-0.792 0.024-1.579 0.073-2.359l-0.005-358.771c0.043-0.673 0.067-1.46 0.067-2.252 0-20.812-16.871-37.683-37.683-37.683-0.792 0-1.579 0.024-2.359 0.073l-637.913-0.005c-0.673-0.043-1.46-0.067-2.252-0.067-20.812 0-37.683 16.871-37.683 37.683 0 0.792 0.024 1.579 0.073 2.359l-0.005 637.845c-0.043 0.673-0.067 1.46-0.067 2.252 0 20.812 16.871 37.683 37.683 37.683 0.792 0 1.579-0.024 2.359-0.073l358.771 0.005c0.673-0.043 1.46-0.067 2.252-0.067 20.812 0 37.683 16.871 37.683 37.683 0 0.792-0.024 1.579-0.073 2.359 0.048 0.566 0.073 1.353 0.073 2.145 0 20.812-16.871 37.683-37.683 37.683-0.792 0-1.579-0.024-2.359-0.073l-358.771 0.005c-0.635 0.012-1.385 0.019-2.136 0.019-64.886 0-117.487-52.601-117.487-117.487 0-0.751 0.007-1.5 0.021-2.248l-0.002-637.908c-0.012-0.635-0.019-1.385-0.019-2.136 0-64.886 52.601-117.487 117.487-117.487 0.751 0 1.5 0.007 2.248 0.021l637.908-0.002c0.635-0.012 1.385-0.019 2.136-0.019 64.886 0 117.487 52.601 117.487 117.487 0 0.751-0.007 1.5-0.021 2.248l0.002 358.766c0.046 0.694 0.072 1.504 0.072 2.32 0 20.812-16.871 37.683-37.683 37.683-0.794 0-1.582-0.025-2.363-0.073z" />
<glyph unicode="&#xe925;" glyph-name="email_send" d="M0 402.261l263.509-141.312 646.485 524.288-550.229-572.075 311.296-167.253 352.939 844.459-1024-488.107zM356.352 5.632l99.669 124.928-99.669 53.248v-178.176z" />
<glyph unicode="&#xe926;" glyph-name="Email" d="M994.645 154.453l-281.259 283.307 281.941 281.259v-564.565h-0.683zM79.872 101.205l283.989 283.989 62.123-61.44c23.211-23.211 51.2-38.912 86.016-38.912s62.123 15.701 86.016 38.912l62.123 61.44 283.989-283.989h-864.256zM945.493 778.411l-404.821-406.187c-15.019-15.701-40.277-16.384-55.979-2.048-0.683 0.683-1.365 1.365-2.048 2.048l-404.821 406.187h867.669zM28.672 719.019l282.624-281.259-282.624-283.307v564.565z" />
<glyph unicode="&#xe927;" glyph-name="Meal2" d="M928.427 884.224c-32.768 0-59.392-26.624-59.392-59.392 0-0.683 0-395.264 0-396.629 0-25.941 16.384-47.787 39.595-55.979v-320.853c0-21.845 17.749-39.595 39.595-39.595s39.595 17.749 39.595 39.595c0 0 0 765.952 0 772.779 0 33.451-26.624 60.075-59.392 60.075zM234.837 566.784v258.048c0 10.923-8.875 19.797-19.797 19.797s-19.797-8.875-19.797-19.797v-197.973c0-10.923-8.875-19.797-19.797-19.797s-19.797 8.875-19.797 19.797v197.973c0 10.923-8.875 19.797-19.797 19.797s-19.797-8.875-19.797-19.797v-197.973c0-10.923-8.875-19.797-19.797-19.797s-19.797 8.875-19.797 19.797v197.973c0 10.923-8.875 19.797-19.797 19.797s-19.797-8.875-19.797-19.797v-257.365c0-44.373 33.451-81.237 78.507-90.112 0-107.861-38.912-313.344-38.912-405.504 0-32.768 26.624-59.392 59.392-59.392s59.392 26.624 59.392 59.392c0 91.477-38.912 296.96-38.912 405.504 44.373 8.192 78.507 45.056 78.507 89.429zM531.797 685.568c-163.84 0-296.96-133.12-296.96-296.96s133.12-296.96 296.96-296.96c163.84 0 296.96 133.12 296.96 296.96s-133.12 296.96-296.96 296.96zM531.797 170.837c-120.149 0-217.771 97.621-217.771 217.771s97.621 217.771 217.771 217.771c120.149 0 217.771-97.621 217.771-217.771s-97.621-217.771-217.771-217.771zM545.794 566.163c98.099-7.75 171.341-93.557 163.592-191.655s-93.557-171.341-191.655-163.592c-98.099 7.75-171.341 93.557-163.592 191.655s93.557 171.341 191.655 163.592z" />
<glyph unicode="&#xe928;" glyph-name="Exclamation" d="M515.413 932.693c-363.179 0-488.107-124.928-488.107-488.107s124.928-488.107 488.107-488.107 488.107 124.928 488.107 488.107-124.928 488.107-488.107 488.107zM515.413 161.894c-0.041 0-0.089 0-0.136 0-28.352 0-51.337 22.984-51.337 51.337s22.984 51.337 51.337 51.337c28.328 0 51.298-22.945 51.336-51.264 0-0.044 0-0.092 0-0.14 0-28.315-22.954-51.268-51.268-51.268 0 0 0 0 0 0zM572.894 438.238c-19.934-76.663-32.085-117.692-55.842-120.832v0h-3.14c-24.030 3.14-36.113 44.169-56.047 120.832-20.89 80.077-38.093 222.959-6.827 259.413 27.307 31.539 57.481 30.106 64.512 29.082 6.827 0.956 37.137 2.458 64.512-29.082 31.13-36.523 13.858-179.405-7.236-259.413z" />
<glyph unicode="&#xe929;" glyph-name="Expandmap" d="M254.43 35.806h-206.643c-21.679 0-39.253 17.574-39.253 39.253v206.985c0 21.679 17.574 39.253 39.253 39.253s39.253-17.574 39.253-39.253v-167.731h167.39c21.679 0 39.253-17.574 39.253-39.253s-17.574-39.253-39.253-39.253zM47.787 560.299c-0.101-0.001-0.221-0.001-0.341-0.001-21.679 0-39.253 17.574-39.253 39.253 0 0.001 0 0.001 0 0.002v206.984c0 0 0 0.001 0 0.001 0 21.679 17.574 39.253 39.253 39.253 0.12 0 0.24-0.001 0.36-0.002h206.625c21.679 0 39.253-17.574 39.253-39.253s-17.574-39.253-39.253-39.253h-167.731v-167.731c0 0 0-0.001 0-0.001 0-21.559-17.38-39.059-38.894-39.252zM978.671 560.299c-21.679 0-39.253 17.574-39.253 39.253v167.731h-168.004c-21.679 0-39.253 17.574-39.253 39.253s17.574 39.253 39.253 39.253h206.985c21.679 0 39.253-17.574 39.253-39.253v-206.985c0 0 0-0.001 0-0.001 0-21.583-17.419-39.098-38.966-39.252zM978.671 35.806h-207.258c-21.679 0-39.253 17.574-39.253 39.253s17.574 39.253 39.253 39.253h167.731v167.731c0 21.679 17.574 39.253 39.253 39.253s39.253-17.574 39.253-39.253v-206.985c0 0 0-0.001 0-0.001 0-21.583-17.419-39.098-38.966-39.252zM228.011 255.625h570.095v370.347h-570.095zM837.359 177.118h-648.533c-21.679 0-39.253 17.574-39.253 39.253v448.853c0 21.679 17.574 39.253 39.253 39.253h648.533c21.679 0 39.253-17.574 39.253-39.253v-448.853c0-21.679-17.574-39.253-39.253-39.253z" />
<glyph unicode="&#xe92a;" glyph-name="filters" d="M46.285 757.18h375.057v-47.036c-0.034-0.673-0.054-1.46-0.054-2.253 0-25.988 21.067-47.056 47.056-47.056 25.196 0 45.766 19.802 46.997 44.693q0.004 2.363 0.004 4.616v47.036h468.992c25.054 0 25.054 94.003 0 94.003h-468.992v46.558c-0.99 25.195-21.655 45.244-47.002 45.244s-46.011-20.049-46.999-45.154l-0.003-47.057h-375.057c-25.054 0-25.054-93.594 0-93.594zM984.405 132.062h-375.057v47.036c-0.99 25.195-21.655 45.244-47.002 45.244s-46.011-20.049-46.999-45.154l-0.003-47.125h-468.514c-25.054 0-25.054-94.003 0-94.003h468.514v-47.036c0.99-25.195 21.655-45.244 47.002-45.244s46.011 20.049 46.999 45.154l0.003 47.467h375.125c24.917 0 24.917 93.662-0.068 93.662zM984.678 505.139h-245.009v47.036c-0.99 25.195-21.655 45.244-47.002 45.244s-46.011-20.049-46.999-45.154l-0.003-46.579h-599.108c-25.054 0-25.054-94.003 0-94.003h598.903v-47.036c0.99-25.195 21.655-45.244 47.002-45.244s46.011 20.049 46.999 45.154l0.003 47.33h245.009c25.259 0 25.259 93.252 0.205 93.252z" />
<glyph unicode="&#xe92b;" glyph-name="flight" d="M811.691 852.821l-192.512-192.512-552.277 170.667c-10.923 2.731-22.528 0-31.403-7.509l-30.72-30.72c-6.144-5.461-6.144-14.336-1.365-20.48 1.365-1.365 2.731-2.048 4.096-2.731l445.099-275.797-163.84-163.84c-25.941-25.259-49.152-53.248-69.632-83.285l-124.245 34.133c-10.923 2.731-22.528-0.683-31.403-8.192l-23.893-23.893c-6.827-5.461-6.827-15.701-1.365-22.528 0.683-0.683 2.048-2.048 2.731-2.731l126.976-94.891 4.096-3.413-1.365-3.413c-12.288-25.259-8.192-29.355 17.067-17.067l3.413 1.365c1.365-1.365 2.048-2.731 3.413-4.096l94.891-126.976c4.779-6.827 15.019-8.875 21.845-4.096 0.683 0.683 2.048 1.365 2.731 2.048l23.893 23.893c7.509 8.875 10.923 20.48 8.192 31.403l-34.133 124.245c30.037 20.48 58.027 43.691 83.285 69.632l163.84 163.84 273.749-441.685c4.096-6.827 12.288-9.557 19.115-5.461 1.365 0.683 2.731 2.048 4.096 2.731l30.72 30.72c7.509 8.192 10.24 20.48 7.509 31.403l-169.984 548.181 193.877 193.877c105.813 105.813 119.467 180.907 96.939 203.435s-97.621 9.557-203.435-96.256z" />
<glyph unicode="&#xe92c;" glyph-name="Guestrating" d="M510.635 941.5c-211.627 0-209.033-175.241-209.033-175.241l-1.229-92.979c-17.271 0-21.436-16.043-21.436-48.401 0-48.606 31.266-99.533 59.665-125.815 9.385-38.073 27.795-70.976 52.867-97.52-85.021-49.799-186.67-83.25-253.298-116.564s-123.767-161.178-123.767-262.758c131.686-58.846 386.935-67.721 496.299-67.721s364.544 8.806 496.299 67.721c0 101.581-56.457 228.898-123.767 262.758s-168.277 66.765-253.133 116.463c24.899 26.455 43.241 59.359 52.257 95.935 28.708 27.764 59.974 78.691 59.974 127.297 0 32.427-4.164 48.674-21.504 48.401l-1.297 93.184s2.526 175.241-209.101 175.241z" />
<glyph unicode="&#xe92d;" glyph-name="Gym" d="M1020.996 379.255c-0.179 117.877-85.91 215.677-198.416 234.642l-30.687 139.664h25.941c2.389-34.133 13.995-67.789 59.324-80.145 7.966-2.254 17.115-3.55 26.566-3.55 0.092 0 0.185 0 0.277 0 15.865 0.124 30.957 3.349 44.734 9.096l61.612 24.764c6.326 2.577 10.704 8.679 10.704 15.804 0 9.399-7.619 17.019-17.019 17.019-2.275 0-4.445-0.446-6.428-1.256l-62.35-25.013c-9.050-3.953-19.594-6.253-30.676-6.253-6.582 0-12.975 0.812-19.084 2.34-21.51 5.893-31.136 18.659-33.593 47.194h16.247c18.851 0 34.133 15.282 34.133 34.133v34.133c0 18.851-15.282 34.133-34.133 34.133h-221.252c-18.851 0-34.133-15.282-34.133-34.133v-34.133c0-18.851 15.282-34.133 34.133-34.133h20.48l34.748-150.187c-60.707-22.244-108.712-66.852-134.902-123.598l-281.729 16.76-58.982 240.026h26.078c29.901 0.342 54.009 24.661 54.009 54.61 0 0.361-0.004 0.722-0.010 1.081 0.001 0 0.001 0.065 0.001 0.129 0 25.474-17.707 46.813-41.484 52.379l-148.298 34.205c-3.589 0.862-7.71 1.356-11.947 1.356-29.442 0-53.311-23.865-53.316-53.306v-37.138c0.039-29.43 23.886-53.277 53.313-53.316h1.301l8.192-34.133h-96.597c-9.426 0-17.067-7.641-17.067-17.067s7.641-17.067 17.067-17.067h16.998v-16.998c0-9.426 7.641-17.067 17.067-17.067s17.067 7.641 17.067 17.067v17.203h53.999l48.196-200.021c-31.356-25.104-51.265-63.379-51.265-106.305 0-33.023 11.783-63.294 31.373-86.838l-76.091-151.331h-6.827c-28.277 0-51.2-22.923-51.2-51.2s22.923-51.2 51.2-51.2h867.669c28.277 0 51.2 22.923 51.2 51.2s-22.923 51.2-51.2 51.2h-10.991l-11.947 56.115c65.344 43.098 107.895 116.135 107.998 199.118zM725.879 575.317h1.024c16.803 4.99 36.109 7.862 56.086 7.862 112.655 0 203.981-91.325 203.981-203.981 0-75.175-40.666-140.852-101.2-176.232q-8.475-4.891-16.326-8.509l-2.116-1.024q-8.124-3.686-16.521-6.827l-1.502-0.546q-8.943-3.072-18.227-5.325v0q-9.557-2.321-19.388-3.686v0c-8.977-1.421-19.328-2.233-29.869-2.233-72.36 0-135.786 38.254-171.156 95.641l173.719 23.464c46.977 0 85.060 38.083 85.060 85.060s-38.083 85.060-85.060 85.060v0l-180.975 11.947c25.88 47.85 69.101 83.533 121.036 98.962zM323.857 362.257c0-37.703-30.564-68.267-68.267-68.267s-68.267 30.564-68.267 68.267c0 37.703 30.564 68.267 68.267 68.267s68.267-30.564 68.267-68.267zM198.793 124.006l53.18 102.4c1.297 0 2.526 0 3.891 0 0.082 0 0.179 0 0.276 0 10.168 0 20.056 1.194 29.533 3.451l287.768 37.032c40.947-75.306 119.299-125.661 209.451-126.088 5.93 0 11.665 0.478 17.467 0.887l3.823-17.886z" />
<glyph unicode="&#xe92e;" glyph-name="hideCode" d="M1017.173 445.269c-4.096 7.509-64.853 105.813-172.715 190.464l-68.949-68.949c14.336-10.923 28.672-22.528 43.008-35.499 45.056-40.277 77.824-81.237 96.939-107.861-52.565-56.661-195.925-187.051-402.773-187.051-21.845 0-42.325 1.365-62.805 4.096l-82.603-82.603c45.056-11.605 93.525-18.432 145.408-18.432 310.613 0 494.933 240.981 502.443 251.221 10.923 16.384 12.288 37.547 2.048 54.613zM901.803 839.168c-19.115 19.115-49.152 19.115-68.267 0l-122.88-122.88c-58.709 25.941-124.928 42.325-198.656 42.325-313.344 0-497.664-300.373-505.173-313.344-10.24-17.067-8.875-38.229 2.731-53.931 4.779-6.144 77.141-100.352 204.8-171.349l-92.16-92.16c-19.115-19.115-19.115-49.152 0-68.267 9.557-9.557 21.845-14.336 34.133-14.336s24.576 4.779 34.133 14.336l711.339 711.339c19.115 19.115 19.115 49.835 0 68.267zM286.037 291.669c-85.333 43.008-146.091 99.669-176.811 132.437 19.115 25.941 51.883 66.901 96.256 107.179 38.912 34.816 78.507 62.123 118.784 83.285-27.989-38.229-44.373-85.333-44.373-136.533 0-53.931 19.115-103.083 49.835-142.677l-43.691-43.691zM512 581.12c-56.661 0-103.083-46.421-103.083-103.083 0-19.797-15.701-35.499-35.499-35.499s-35.499 15.701-35.499 35.499c0 96.256 78.507 174.080 174.080 174.080 19.797 0 35.499-15.701 35.499-35.499 0-19.115-15.701-34.816-35.499-35.499zM511.317 246.613c128.341 0 232.107 103.765 232.107 232.107 0 17.749-2.048 34.816-5.461 51.2l-277.163-277.163c16.384-4.096 33.451-6.144 50.517-6.144z" />
<glyph unicode="&#xe92f;" glyph-name="hotel" d="M971.435 638.464c-29.355 0-52.565-23.893-52.565-53.248 0 0 0 0 0 0v-200.704h-813.056v434.859c0 29.355-23.893 52.565-52.565 52.565s-53.248-23.893-53.248-52.565v-742.059c0-29.355 23.893-52.565 52.565-52.565s52.565 23.893 52.565 52.565v109.909h813.056v-109.909c0-29.355 23.893-52.565 52.565-52.565s52.565 23.893 52.565 52.565v507.904c0.683 29.355-22.528 53.248-51.883 53.248 0 0 0 0 0 0zM257.365 731.307c50.517 0 91.477-40.96 91.477-92.16s-40.96-92.16-91.477-92.16-91.477 40.96-91.477 92.16 40.96 92.16 91.477 92.16zM867.669 562.688c0 48.469-38.912 88.747-88.064 88.747 0 0 0 0 0 0h-383.659v-220.501h471.040l0.683 131.755zM352.256 514.901h-141.995c-23.893 0.683-43.691-18.432-43.691-41.643 0 0 0 0 0 0v-41.643h185.685v83.285z" />
<glyph unicode="&#xe930;" glyph-name="Hotelname" d="M948.497 24.201h-20.48c0 132.437 0 763.836 0 765.952 0 55.023-180.224 153.395-416.427 153.395s-416.017-98.441-416.017-153.463v-765.952h-20.002c-24.713 0-44.783-16.043-44.783-35.84s20.070-35.84 44.783-35.84h872.926c24.781 0 44.783 16.043 44.783 35.84s-20.070 35.908-44.783 35.908zM364.271 250.027c0-10.708-8.68-19.388-19.388-19.388h-113.459c-10.708 0-19.388 8.68-19.388 19.388v68.267c0 10.708 8.68 19.388 19.388 19.388h113.527c10.678-0.039 19.319-8.704 19.319-19.388 0 0 0 0 0 0zM364.271 429.090c0-10.708-8.68-19.388-19.388-19.388h-113.459c-10.708 0-19.388 8.68-19.388 19.388v68.471c0 10.708 8.68 19.388 19.388 19.388h113.527c10.708 0 19.388-8.68 19.388-19.388zM364.271 608.222c0-10.708-8.68-19.388-19.388-19.388h-113.459c-10.708 0-19.388 8.68-19.388 19.388v68.403c0 10.708 8.68 19.388 19.388 19.388h113.527c10.708 0 19.388-8.68 19.388-19.388zM588.117 236.305v-103.765c0-10.708-8.68-19.388-19.388-19.388h-113.459c-10.708 0-19.388 8.68-19.388 19.388v185.754c0 10.708 8.68 19.388 19.388 19.388h113.527c10.708 0 19.388-8.68 19.388-19.388zM588.117 429.158c0-10.708-8.68-19.388-19.388-19.388h-113.459c-10.708 0-19.388 8.68-19.388 19.388v68.403c0 10.708 8.68 19.388 19.388 19.388h113.527c10.708 0 19.388-8.68 19.388-19.388zM588.117 608.29c0-10.708-8.68-19.388-19.388-19.388h-113.459c-10.708 0-19.388 8.68-19.388 19.388v68.335c0 10.708 8.68 19.388 19.388 19.388h113.527c10.708 0 19.388-8.68 19.388-19.388zM812.373 250.027c0-10.708-8.68-19.388-19.388-19.388h-113.869c-10.678 0.039-19.319 8.704-19.319 19.388 0 0 0 0 0 0v68.267c0 10.708 8.68 19.388 19.388 19.388h113.527c0.081 0.001 0.177 0.002 0.273 0.002 10.708 0 19.388-8.68 19.388-19.388 0-0.001 0-0.001 0-0.002zM812.373 429.090c0-10.708-8.68-19.388-19.388-19.388h-113.869c-10.708 0-19.388 8.68-19.388 19.388v68.471c0 10.708 8.68 19.388 19.388 19.388h113.527c0.102 0.002 0.221 0.003 0.341 0.003 10.708 0 19.388-8.68 19.388-19.388 0-0.001 0-0.002 0-0.003zM812.373 608.222c0-10.708-8.68-19.388-19.388-19.388h-113.869c-10.708 0-19.388 8.68-19.388 19.388v68.403c0 10.708 8.68 19.388 19.388 19.388h113.527c0.102 0.002 0.221 0.003 0.341 0.003 10.708 0 19.388-8.68 19.388-19.388 0-0.001 0-0.002 0-0.003z" />
<glyph unicode="&#xe931;" glyph-name="Info" d="M512 957.747c-281.337 0-509.406-228.069-509.406-509.406s228.069-509.406 509.406-509.406c281.337 0 509.406 228.069 509.406 509.406s-228.069 509.406-509.406 509.406zM579.925 210.637c0-37.514-30.411-67.925-67.925-67.925s-67.925 30.411-67.925 67.925v237.705c0 37.514 30.411 67.925 67.925 67.925s67.925-30.411 67.925-67.925zM564.565 599.757c-13.453-13.452-32.038-21.772-52.565-21.772-41.058 0-74.342 33.284-74.342 74.342s33.284 74.342 74.342 74.342c41.058 0 74.342-33.284 74.342-74.342 0-0.002 0-0.004 0-0.006 0-0.059 0-0.129 0-0.199 0-20.531-8.322-39.117-21.777-52.571z" />
<glyph unicode="&#xe932;" glyph-name="Insurance" d="M873.813 834.731l-28.672 2.935c-21.982 2.185-41.711 4.301-60.279 7.646-75.384 14.806-142.004 44.617-199.416 86.332-18.878 14.036-44.414 23.092-72.062 23.168-25.421-0.212-49.004-7.822-68.769-20.778l-7.707-4.685c-17.34-11.264-34.133-21.777-50.108-30.788-67.789-36.318-143.906-57.139-232.721-63.556-86.357-6.485-117.009-70.997-117.009-123.494 0-13.244 0-26.692 0-39.253v-19.456c0.46-64.669 6.825-127.553 18.58-188.517 18.557-92.742 51.393-177.392 99.317-252.213 70.451-111.070 172.373-197.973 303.309-259.413 15.308-6.987 33.202-11.060 52.048-11.060 0.134 0 0.268 0 0.402 0.001 0.316-0.003 0.715-0.005 1.113-0.005 22.328 0 43.265 5.955 61.31 16.364 149.251 85.359 259.707 203.323 327.973 350.028 54.204 117.487 81.92 249.788 83.9 405.163 0.007 0.488 0.011 1.063 0.011 1.639 0 63.241-48.804 115.083-110.803 119.918z" />
<glyph unicode="&#xe933;" glyph-name="layover" d="M842.411 13.824h-43.691c0.683 41.643 0 114.688 0 172.032 0 73.728-47.104 114.005-134.485 186.368-24.576 21.163-54.613 45.739-88.747 75.776 34.133 30.037 63.488 54.613 89.429 75.776 87.381 72.363 135.168 112.64 135.168 186.368 0 57.344 0.683 131.072 0 172.032h42.325c20.48 0 37.547 18.432 37.547 38.912s-17.067 38.912-37.547 38.912h-659.456c-20.48 0-37.547-18.432-37.547-38.912s17.067-38.912 37.547-38.912h42.325c-0.683-41.643 0-114.688 0-172.032 0-73.728 47.787-114.005 135.168-186.368 25.259-21.163 55.296-45.739 89.429-75.776-34.133-30.037-63.488-54.613-89.429-75.776-87.381-72.363-135.168-112.64-135.168-186.368 0-57.344-0.683-131.072 0-172.032h-42.325c-20.48 0-37.547-18.432-37.547-38.912s17.067-38.912 37.547-38.912h659.456c20.48 0 37.547 18.432 37.547 38.912s-16.384 38.912-37.547 38.912zM310.613 651.435c-17.067 20.48-23.893 37.547-23.893 58.027 0 57.344-0.683 131.072 0 172.032h452.608c0.683-40.96 0-114.688 0-172.032 0-21.163-6.827-38.229-23.893-58.027h-404.821zM737.963 13.824c0 0-101.035 53.931-187.051 68.267 1.365 4.096 2.048 8.192 2.048 12.288 0 21.845-17.749 38.912-38.912 38.912s-38.912-17.749-38.912-38.912c0-4.096 0.683-8.192 2.048-12.288-86.699-13.653-189.099-68.267-189.099-68.267-0.683 40.96 0 114.688 0 172.032 0 43.008 27.989 68.949 111.957 138.581 22.528 18.432 47.787 39.595 76.459 64.853 4.779-16.384 19.797-27.989 37.547-27.989 17.067 0 32.085 11.605 36.864 26.624 27.989-24.576 53.248-45.056 75.093-63.488 83.968-69.632 111.957-96.256 111.957-138.581 0-57.344 0.683-131.072 0-172.032z" />
<glyph unicode="&#xe934;" glyph-name="Map" d="M878.387 584.533c0.001 0.387 0.002 0.846 0.002 1.304 0 202.312-164.007 366.319-366.319 366.319s-366.319-164.007-366.319-366.319c0-89.226 31.901-171.001 84.918-234.542l281.671-404.646 286.379 411.102c9.591 11.842 18.894 25.058 27.292 38.884l3.769 5.763h-0.478c30.853 52.146 49.084 114.923 49.084 181.959 0 0.062 0 0.124 0 0.186zM688.333 584.533c0.001-0.182 0.001-0.398 0.001-0.614 0-101.156-82.003-183.159-183.159-183.159s-183.159 82.003-183.159 183.159c0 101.156 82.003 183.159 183.158 183.159 0.122 0 0.266 0 0.41 0 100.858 0 182.633-81.703 182.75-182.534z" />
<glyph unicode="&#xe935;" glyph-name="Meal" d="M500.531 506.3l64.171 64.102-22.938 23.006c-11.681 11.768-18.9 27.978-18.9 45.875s7.219 34.107 18.904 45.879l231.625 231.625c6.248 6.691 15.122 10.862 24.971 10.862 8.786 0 16.797-3.32 22.846-8.773 5.396-5.992 8.715-14.003 8.715-22.789 0-9.848-4.171-18.723-10.842-24.953l-185.705-185.977 46.012-46.012 185.685 185.89c6.248 6.691 15.122 10.862 24.971 10.862 8.786 0 16.797-3.32 22.846-8.773 5.396-5.992 8.715-14.003 8.715-22.789 0-9.848-4.171-18.723-10.842-24.953s-137.782-137.507-185.91-185.704l46.558-46.285 185.754 185.89c6.014 7.135 14.956 11.637 24.949 11.637 17.984 0 32.563-14.579 32.563-32.563 0-9.994-4.502-18.936-11.589-24.909l-231.678-231.669c-11.76-11.697-27.973-18.928-45.875-18.928s-34.115 7.231-45.878 18.93l-22.935 22.935-64.171-64.102 333.756-333.756c11.74-11.74 19.002-27.96 19.002-45.875 0-35.831-29.047-64.877-64.877-64.877-17.915 0-34.135 7.262-45.875 19.002l-334.029 333.687-333.483-333.483c-11.761-11.778-28.019-19.065-45.978-19.065-35.884 0-64.974 29.090-64.974 64.974 0 17.925 7.259 34.155 18.997 45.91l333.687 333.414-62.327 62.396c-11.287-5.022-24.457-7.946-38.309-7.946-26.705 0-50.872 10.867-68.319 28.421-118.447 117.082-81.925 80.013-199.616 197.978-17.384 17.384-28.136 41.399-28.136 67.925 0 53.053 43.008 96.061 96.061 96.061 26.526 0 50.542-10.752 67.925-28.136z" />
<glyph unicode="&#xe936;" glyph-name="minus" d="M512 960c-282.624 0-512-229.376-512-512s229.376-512 512-512 512 229.376 512 512-229.376 512-512 512zM741.376 394.752v0 0h-458.752c-34.133 0-61.44 27.307-61.44 61.44s27.307 61.44 61.44 61.44h458.752c34.133 0 61.44-27.307 61.44-61.44s-27.307-61.44-61.44-61.44z" />
<glyph unicode="&#xe937;" glyph-name="origin_pin" d="M512 960c-282.624 0-512-229.376-512-512s229.376-512 512-512 512 229.376 512 512c0.683 282.624-228.011 511.317-510.635 512-0.683 0-0.683 0-1.365 0zM965.973 403.627c-21.163-217.088-192.512-388.437-409.6-409.6l-15.701-1.365v211.627c2.048 15.701-9.557 29.355-24.576 30.72s-29.355-9.557-30.72-24.576c0-0.683 0-1.365 0-2.048v-216.405l-17.749 1.365c-217.088 21.163-388.437 192.512-409.6 409.6l-1.365 16.384h211.627c15.019 1.365 26.624 14.336 25.941 29.355 0 0 0 0.683 0 0.683-1.365 13.653-12.288 24.576-25.941 25.941h-211.627l1.365 16.384c21.163 217.088 192.512 388.437 409.6 409.6l15.701 1.365v-189.099c-2.048-15.701 9.557-29.355 24.576-30.72s29.355 9.557 30.72 24.576c0 0.683 0 1.365 0 2.048v194.56l17.749-2.048c217.088-21.163 388.437-192.512 409.6-409.6l1.365-15.701h-188.416c-15.019-1.365-26.624-14.336-25.941-29.355 0 0 0-0.683 0-0.683 1.365-13.653 12.288-24.576 25.941-25.941h188.416l-1.365-17.067z" />
<glyph unicode="&#xe938;" glyph-name="Others" d="M512 951.125c-277.378 0-502.238-224.86-502.238-502.238s224.86-502.238 502.238-502.238c277.378 0 502.238 224.86 502.238 502.238s-224.86 502.238-502.238 502.238zM193.468 329.899c-60.324 0-109.227 48.902-109.227 109.227s48.902 109.227 109.227 109.227c60.324 0 109.227-48.902 109.227-109.227-0.078-60.265-48.95-109.090-109.227-109.090zM512 329.899c-60.324 0-109.227 48.902-109.227 109.227s48.902 109.227 109.227 109.227c60.324 0 109.227-48.902 109.227-109.227-0.078-60.265-48.95-109.090-109.227-109.090zM830.532 329.899c-60.324 0-109.227 48.902-109.227 109.227s48.902 109.227 109.227 109.227c60.324 0 109.227-48.902 109.227-109.227-0.078-60.265-48.95-109.090-109.227-109.090z" />
<glyph unicode="&#xe939;" glyph-name="Parking" d="M512 43.452c-224.557 0-406.596 182.039-406.596 406.596s182.039 406.596 406.596 406.596c224.557 0 406.596-182.039 406.596-406.596s-182.039-406.596-406.596-406.596zM512 938.837c-269.951 0-488.789-218.838-488.789-488.789s218.838-488.789 488.789-488.789c269.951 0 488.789 218.838 488.789 488.789s-218.838 488.789-488.789 488.789zM611.601 483.977c-7.018-10.849-16.875-19.324-28.529-24.48-12.636-4.67-36.939-9.449-73.53-9.449h-27.307c-9.765 0-17.681 7.916-17.681 17.681v105.882c0 0.021 0 0.046 0 0.072 0 9.765 7.916 17.681 17.681 17.681 0.12 0 0.24-0.001 0.359-0.004h21.008c23.569-0.007 46.554-2.492 68.712-7.211 12.913-2.702 25.792-10.529 35.184-21.443 9.222-10.751 14.791-24.718 14.791-39.986 0-0.781-0.015-1.56-0.044-2.334 0.009-0.199 0.012-0.566 0.012-0.933 0-13.211-3.98-25.493-10.805-35.712zM624.913 657.988c-17.067 4.574-53.794 9.83-110.046 9.83h-122.88c-9.765 0-17.681-7.916-17.681-17.681v-431.65c0-9.765 7.916-17.681 17.681-17.681h54.613c9.765 0 17.681 7.916 17.681 17.681v153.054h54.613c0.731-0.004 1.596-0.006 2.462-0.006 33.085 0 65.403 3.283 96.647 9.54 15.14 4.288 31.105 12.184 45.010 22.667 15.978 11.723 29.123 27.073 38.228 44.836 10.031 20.086 15.707 42.914 15.707 67.068 0 1.731-0.029 3.455-0.087 5.172 0.007 36.205-8.868 67.607-26.549 90.681-15.881 22.002-38.368 38.364-64.527 46.263z" />
<glyph unicode="&#xe93a;" glyph-name="passenger" d="M512 960c141.312 0 256-114.688 256-256s-114.688-256-256-256-256 114.688-256 256 114.688 256 256 256zM942.080 192c-268.288 137.899-587.093 137.899-854.699 0-53.931-30.037-86.699-86.699-87.381-148.139v-107.861h1024v107.861c0.683 60.075-30.72 116.736-81.92 148.139z" />
<glyph unicode="&#xe93b;" glyph-name="Password" d="M817.766-39.219h-601.361c-0.43-0.007-0.937-0.012-1.445-0.012-49.013 0-88.747 39.733-88.747 88.747 0 0.508 0.004 1.015 0.013 1.522l-0.001 420.856c-0.007 0.43-0.012 0.937-0.012 1.445 0 49.013 39.733 88.747 88.747 88.747 0.508 0 1.015-0.004 1.522-0.013l60.067 0.001v120.286c-0.004 0.493-0.006 1.076-0.006 1.66 0 131.959 106.974 238.933 238.933 238.933 79.607 0 150.121-38.931 193.541-98.793 9.726-12.861 17.787-26.732 24.037-41.553 15.49-31.297 0.472-67.41-29.566-82.429s-66.15 0-81.169 30.037l-12.015 21.299c-23.445 29.224-59.151 47.776-99.19 47.787-63.217 3.686-114.348-50.927-114.348-116.941v-120.286h420.932c0.45 0.008 0.981 0.013 1.514 0.013 49.013 0 88.747-39.733 88.747-88.747 0-0.509-0.004-1.016-0.013-1.523l0.001-420.856c0.007-0.43 0.012-0.937 0.012-1.445 0-49.013-39.733-88.747-88.747-88.747-0.508 0-1.015 0.004-1.522 0.013z" />
<glyph unicode="&#xe93c;" glyph-name="plane" d="M126.976 393.387v3.413c41.643-12.971 109.909-17.749 187.051-17.067 79.189-7.509 85.333-1.365 97.621-1.365 21.163-0.683 28.672-23.893 28.672-23.893l-80.555-350.208 63.488 0.683 47.787 89.429v-0.683h39.595c6.144 0 23.893 12.288 23.893 26.624s-18.432 26.624-23.893 26.624h-10.923l27.989 52.565h35.499c6.144 0 23.893 12.288 23.893 26.624s-18.432 26.624-23.893 26.624h-7.509l72.363 135.851c2.048 0 21.845-2.048 24.576-2.048 83.285 1.365 251.221 4.779 309.931 21.163 37.547 10.24 61.44 28.672 61.44 41.643s-24.576 31.403-62.805 40.277c-58.709 14.336-226.645 17.067-309.931 15.701-2.731 0-23.211 5.461-25.941 5.461l-61.44 111.275c6.144 0.683 23.893 12.288 23.893 26.624s-18.432 26.624-23.893 26.624h-29.355l-29.355 52.565h5.461c6.144 0 23.893 12.288 23.893 26.624s-18.432 26.624-23.893 26.624h-35.499l-61.44 109.909-63.488-0.683 88.064-359.765c0 0-6.827-28.672-27.989-30.037-13.653-0.683-31.403-2.731-116.053-16.384-69.632-2.048-129.707-8.875-167.936-22.528l-48.469 67.584-77.824 25.259 58.709-124.928-55.979-129.707 77.824 27.307 46.421 66.219z" />
<glyph unicode="&#xe93d;" glyph-name="plus" d="M512 960c-282.624 0-512-229.376-512-512s229.376-512 512-512 512 229.376 512 512-229.376 512-512 512zM741.376 394.752v0h-161.792v-176.128c0-33.451-34.816-60.075-68.267-60.075s-68.267 26.624-68.267 60.075v176.128h-160.427c-34.133 0-61.44 27.307-61.44 61.44s27.307 61.44 61.44 61.44h160.427v159.744c0 32.768 35.499 60.075 68.267 60.075s68.267-26.624 68.267-60.075v-160.427h161.792c34.133 0 61.44-27.307 61.44-61.44s-27.307-60.757-61.44-60.757z" />
<glyph unicode="&#xe93e;" glyph-name="Price" d="M540.809 365.534c0-45.466 106.018-83.285 234.769-83.285s234.769 37.82 234.769 83.285-104.107 83.285-234.769 83.285c-128.751 0-234.769-37.82-234.769-83.285zM775.578 223.539c-128.751 0-234.769 37.888-234.769 83.285v-87.108c0-45.466 106.018-83.285 234.769-83.285s234.769 37.888 234.769 83.354v87.040c0-45.397-104.107-83.285-234.769-83.285zM775.578 70.212c-128.751 0-234.769 37.888-234.769 83.285v-87.108c0-45.466 106.018-83.285 234.769-83.285s234.769 37.888 234.769 83.285v87.108c0-45.466-104.107-83.285-234.769-83.285zM775.578 534.016v87.108c0-45.466-104.107-83.285-234.769-83.285h-7.578v-87.108c1.911 0 115.507 53.043 230.946 56.798 6.65 6.903 10.903 16.155 11.397 26.394zM533.231 604.058h7.578c128.751 0 234.769 37.888 234.769 83.285v87.108c0-45.466-104.107-83.285-234.769-83.285h-22.665c7.852-5.883 13.351-14.535 15.054-24.483zM540.809 749.875c128.751 0 234.769 37.888 234.769 83.285s-104.107 83.285-234.769 83.285c-128.751 0-234.769-37.888-234.769-83.285s104.175-83.285 234.769-83.285zM243.575 721.476c-128.751 0-234.769-37.888-234.769-83.285s106.018-83.285 234.769-83.285c130.662 0 234.769 37.888 234.769 83.285s-104.107 83.285-234.769 83.285zM243.575 496.196c-128.683 0-234.701 37.82-234.701 83.285v-87.108c0-45.466 106.018-83.285 234.769-83.285s234.769 37.888 234.769 83.285v87.108c-0.068-45.466-104.175-83.285-234.837-83.285zM243.575 342.801c-128.751 0-234.769 37.888-234.769 83.285v-87.313c0-45.466 106.018-83.285 234.769-83.285s234.769 38.093 234.769 83.285v87.313c0-45.397-104.107-83.285-234.769-83.285zM243.575 191.386c-128.751 0-234.769 37.888-234.769 83.285v-87.108c0-45.466 106.018-83.285 234.769-83.285s234.769 37.888 234.769 83.285v87.108c0-45.124-104.107-83.285-234.769-83.285z" />
<glyph unicode="&#xe93f;" glyph-name="Print" d="M253.611 802.987c0.039 8.015 6.526 14.502 14.537 14.541h412.949v-38.844c0-0.020 0-0.044 0-0.068 0-26.807 21.731-48.538 48.538-48.538 0.024 0 0.048 0 0.072 0h38.84v-257.161h34.133v257.502l-121.583 121.446h-412.945c-26.815-0.038-48.538-21.785-48.538-48.606 0-0.096 0-0.192 0.001-0.288v-330.055h34.133zM709.973 526.37h-398.063c-6.711 0-12.151-5.44-12.151-12.151s5.44-12.151 12.151-12.151h398.063c6.711 0 12.151 5.44 12.151 12.151s-5.44 12.151-12.151 12.151zM709.973 591.974h-398.063c-6.711 0-12.151-5.44-12.151-12.151s5.44-12.151 12.151-12.151h398.063c6.711 0 12.151 5.44 12.151 12.151s-5.44 12.151-12.151 12.151zM709.973 657.579h-398.063c-6.711 0-12.151-5.44-12.151-12.151s5.44-12.151 12.151-12.151h398.063c6.711 0 12.151 5.44 12.151 12.151s-5.44 12.151-12.151 12.151zM311.91 698.88h320.853c6.711 0 12.151 5.44 12.151 12.151s-5.44 12.151-12.151 12.151h-320.853c-6.711 0-12.151-5.44-12.151-12.151s5.44-12.151 12.151-12.151zM961.331 609.86c-21.925 21.973-52.24 35.567-85.73 35.567-0.052 0-0.105 0-0.157 0h-38.836v-191.898c-0.039-8.015-6.526-14.502-14.537-14.541h-621.913c0 0 0 0 0 0-8.044 0-14.57 6.502-14.609 14.537v191.901h-38.775c-0.020 0-0.044 0-0.068 0-67.073 0-121.446-54.373-121.446-121.446v-330.342c0-18.851 15.282-34.133 34.133-34.133h174.763v72.977c0.039 8.015 6.526 14.502 14.537 14.541h19.46v-160.29c0.116-26.718 21.803-48.333 48.537-48.333 0.024 0 0.048 0 0.072 0h388.638c26.844 0 48.606 21.762 48.606 48.606v160.017h19.388c8.015-0.039 14.502-6.526 14.541-14.537v-72.912h174.626c18.851 0 34.133 15.282 34.133 34.133v330.274c0 0.105 0.001 0.229 0.001 0.354 0 33.388-13.512 63.621-35.365 85.528zM720.009 86.733c-0.039-8.039-6.565-14.541-14.609-14.541 0 0 0 0 0 0h-388.642c-8.031 0-14.541 6.51-14.541 14.541v160.29h417.792zM928.905 222.72h-24.303c-6.711 0-12.151 5.44-12.151 12.151s5.44 12.151 12.151 12.151h24.303c6.711 0 12.151-5.44 12.151-12.151s-5.44-12.151-12.151-12.151zM916.753 481.041c-13.422 0-24.303 10.881-24.303 24.303s10.881 24.303 24.303 24.303c13.422 0 24.303-10.881 24.303-24.303s-10.881-24.303-24.303-24.303z" />
<glyph unicode="&#xe940;" glyph-name="Rating" d="M580.267 889.822l102.4-257.024 273.408-20.48c64.649-6.827 85.47-85.811 37.41-120.559l-212.173-176.674 65.331-266.24c13.653-63.488-55.228-107.861-103.151-72.841l-234.086 147.524-233.062-144.384c-56.115-32.768-119.603 19.183-101.171 75.571l68.267 268.22-209.306 177.015c-48.469 43.213-18.705 119.671 40.619 119.535l276.139 18.159 103.424 254.089c26.078 59.255 107.998 54.613 125.952-1.911z" />
<glyph unicode="&#xe941;" glyph-name="search" d="M406.187 243.2c171.349 0 310.613 139.264 310.613 310.613s-139.264 310.613-310.613 310.613c-171.349 0-310.613-139.264-310.613-310.613 0 0 0 0 0 0 0-172.032 139.264-310.613 310.613-310.613zM641.707 222.72c-182.955-129.707-436.224-87.381-566.613 95.573s-87.381 436.224 95.573 566.613 436.907 87.381 566.613-95.573c100.352-140.629 100.352-329.728 0-471.040l266.923-266.923c25.941-25.941 25.941-68.267 0-94.208 0 0 0 0 0 0l-1.365-1.365c-25.941-25.941-68.267-25.941-94.208 0l-266.923 266.923z" />
<glyph unicode="&#xe942;" glyph-name="seats" d="M231.424 695.808c52.565 8.192 88.064 56.661 73.728 146.773-8.192 52.565-57.344 88.064-109.909 79.872s-88.064-58.027-79.872-110.592c14.336-90.112 63.488-124.245 116.053-116.053zM749.568 402.261c-3.413 0-6.827 0-10.24-0.683l-419.84-58.709c-0.683 0-0.683 0-1.365 0-2.731 0-6.144 1.365-7.509 4.096l-228.693 371.371c-8.875 15.019-28.672 19.797-43.691 11.605l-17.749-10.24c-14.336-8.192-20.48-26.624-13.653-41.643l176.811-402.091c7.509-17.067 13.653-34.816 17.749-53.248l48.469-210.944c2.048-8.192 8.875-13.653 17.067-13.653h62.123c9.557 0 17.749 7.509 17.749 17.067 2.048 53.248 19.797 84.651 122.197 96.256 129.707 14.336 212.992 42.325 234.837-98.304 1.365-8.875 8.875-15.019 17.749-15.019h44.373c6.827 0 13.653 4.096 16.384 10.923 8.192 18.432 17.067 40.96 25.259 65.536 15.701 48.469 29.355 107.179 29.355 168.619-0.683 35.499-5.461 71.68-17.067 107.861-10.24 30.72-38.912 51.2-70.315 51.2zM1012.395 54.784c0 0-49.835 70.997-101.035 142.677-14.336 20.48-28.672 40.277-42.325 58.709 2.048-49.152-5.461-98.304-17.749-141.995l100.352-105.813c6.144-6.827 15.019-10.24 23.893-10.24 5.461 0 10.24 1.365 15.019 4.096l9.557 5.461c8.192 4.096 14.336 12.288 16.384 21.163 3.413 8.875 1.365 18.432-4.096 25.941zM208.213 653.483c-10.24-2.731-17.749-9.557-21.845-19.115s-2.731-20.48 2.048-29.355l140.629-233.472 50.517 6.827c1.365 0 2.731 0 4.096 0s3.413 0 4.779 0l256 36.864c16.384 2.048 27.989 16.384 27.989 32.085v9.557c0 9.557-4.096 18.432-10.923 24.576-5.461 6.144-15.019 8.875-23.893 8.192l-164.523-15.019-92.843-9.557v2.048c-0.683 7.509 4.096 13.653 11.605 14.336l73.045 7.509-52.565 99.669c-18.432 39.595-56.661 89.429-98.987 89.429-9.557 0-19.115-1.365-29.355-4.096l-75.776-20.48z" />
<glyph unicode="&#xe943;" glyph-name="SeatsBaggageMeal" d="M512 951.125c-277.378 0-502.238-224.86-502.238-502.238s224.86-502.238 502.238-502.238c277.378 0 502.238 224.86 502.238 502.238s-224.86 502.238-502.238 502.238zM193.468 329.899c-60.324 0-109.227 48.902-109.227 109.227s48.902 109.227 109.227 109.227c60.324 0 109.227-48.902 109.227-109.227-0.078-60.265-48.95-109.090-109.227-109.090zM512 329.899c-60.324 0-109.227 48.902-109.227 109.227s48.902 109.227 109.227 109.227c60.324 0 109.227-48.902 109.227-109.227-0.078-60.265-48.95-109.090-109.227-109.090zM830.532 329.899c-60.324 0-109.227 48.902-109.227 109.227s48.902 109.227 109.227 109.227c60.324 0 109.227-48.902 109.227-109.227-0.078-60.265-48.95-109.090-109.227-109.090z" />
<glyph unicode="&#xe944;" glyph-name="Settings" d="M956.894 364.988l-36.318 38.98c0.018 0.174 0.028 0.376 0.028 0.58s-0.010 0.406-0.030 0.605c0.753 8.645 1.299 17.451 1.64 26.189 0 2.526 0 5.257 0 7.782 0 6.827 0 13.244 0 19.729 0 2.867 0 5.461-0.478 8.329 0 4.369-0.341 8.602-0.683 13.175l36.386 38.707c17.34 18.5 48.947 43.076 39.253 66.492l-39.868 96.734c-9.626 23.415-49.289 18.5-74.615 19.388l-53.18 1.911c-4.028 4.779-8.329 9.353-12.493 13.995l-0.546 0.683c-1.502 1.57-2.731 3.209-4.233 4.779s-4.847 4.779-7.168 7.168c-3.345 3.413-6.827 6.827-10.172 10.103-5.666 5.461-11.674 10.581-17.545 15.701l-0.819 0.614-0.956 0.956-1.707 53.248c-0.751 25.19 4.164 64.922-19.046 74.615l-97.143 40.414c-23.279 9.694-47.787-21.845-66.492-39.049l-38.98-36.386c-8.738 0.887-17.408 1.297-26.078 1.638-2.458 0-4.847 0-7.441 0-5.598 0-11.264 0-16.998 0-7.236 0-14.541-0.683-21.777-1.297h-4.028l-38.502 36.25c-18.5 17.271-43.076 48.947-66.492 39.253l-96.939-39.868c-23.415-9.626-18.432-49.357-19.388-74.684l-1.911-53.248c-0.62-0.505-1.177-1.018-1.701-1.564q-9.563-7.925-18.643-16.459l-6.827-6.827c-4.301-4.164-8.602-8.533-12.766-12.971-2.116-2.321-4.096-4.642-6.144-6.827s-5.53-6.007-8.192-9.216l-53.316-1.638c-25.19-0.819-64.922 4.164-74.615-19.115l-40.073-96.802c-9.421-23.006 21.845-47.923 39.049-66.355l36.386-38.98c-0.614-6.007-0.819-12.015-1.161-18.159 0-0.546 0-1.161 0-1.707-0.478-10.377-0.751-20.48-0.41-30.993 0-4.506 0.478-8.943 0.819-13.653s0.341-7.373 0.683-10.991c-0.014-0.153-0.022-0.332-0.022-0.512s0.008-0.359 0.024-0.535l-36.456-38.821c-17.271-18.432-48.947-42.94-39.322-66.355l39.868-96.734c9.626-23.415 49.425-18.569 74.684-19.456l53.248-1.775c0.341-0.546 0.819-0.819 1.161-1.365 5.393-6.485 11.059-12.834 16.998-19.183 2.048-2.253 4.301-4.164 6.349-6.349 4.369-4.369 8.738-8.738 13.244-12.971 2.253-1.911 4.574-3.959 6.827-6.007s6.212-5.598 9.353-8.124l1.638-53.316c0.819-25.19-4.164-65.058 19.115-74.684l96.666-40.277c23.279-9.694 47.787 21.845 66.355 39.049l38.98 36.318h1.297c5.052-0.546 10.035-0.751 15.019-1.024h19.183c6.827 0 13.039 0 19.456 0l8.465 0.478 12.902 0.683 38.844-36.386c18.432-17.681 43.008-49.22 66.219-39.595l96.734 39.868c23.415 9.694 18.569 49.357 19.456 74.684l1.843 53.111c4.574 3.823 8.943 7.782 13.175 11.605 0.582 0.612 1.207 1.172 1.873 1.679 1.54 1.462 3.11 2.622 4.407 3.919 2.594 2.253 4.779 4.779 6.827 6.827 3.345 3.413 6.827 6.827 10.308 10.377 4.983 5.325 9.967 10.923 14.746 16.725 0.533 0.486 1.004 1.023 1.413 1.607l0.908 0.919 53.248 1.707c25.19 0.819 65.058-4.164 74.684 19.115l40.277 96.802c10.377 23.552-21.163 48.333-38.366 66.765zM513.161 229.888c-117.595 0-212.924 95.329-212.924 212.924s95.329 212.924 212.924 212.924c117.595 0 212.924-95.329 212.924-212.924s-95.329-212.924-212.924-212.924c-0.072 0-0.144 0-0.216 0z" />
<glyph unicode="&#xe945;" glyph-name="Stops" d="M512 824.832c-242.347 0-438.272-195.925-438.955-438.272 0-242.347 195.925-438.272 438.272-438.955s438.272 195.925 438.955 438.272c0 0 0 0 0 0 0 243.029-195.925 438.955-438.272 438.955zM673.109 214.528l-12.971-12.971c-10.923-10.923-27.989-10.923-39.595-1.365l-165.205 145.408c-12.288 12.288-19.115 28.672-19.115 45.739l15.019 260.779c1.365 15.019 13.653 27.307 28.672 27.307h18.432c15.019 0 27.989-12.288 28.672-27.307l12.971-217.088c2.048-17.749 8.875-34.133 19.797-47.787l114.688-132.437c10.24-11.605 9.557-29.355-1.365-40.277zM425.301 876.715c0 0 0 0 0 0h8.875v-21.845c0-8.192 6.144-15.701 14.336-15.701 1.365 0 2.731 0 4.096 0.683 40.277 6.144 80.555 6.144 120.149 0 17.749-2.048 20.48 10.24 21.163 16.384v20.48h8.875c13.653 0 25.259 11.605 25.259 25.259 0 0 0 0 0 0v20.48c0 13.653-10.923 25.259-25.259 25.259 0 0 0 0 0 0h-177.493c-13.653 0-25.259-10.923-25.259-25.259 0 0 0 0 0 0v-21.163c0-13.653 11.605-24.576 25.259-24.576zM692.224 798.208c37.547-17.067 73.045-38.912 104.448-66.219v0c7.509-6.827 18.432-6.144 25.259 1.365 1.365 1.365 2.048 2.731 2.731 4.096l14.336 22.528c3.413 5.461 2.048 12.288-2.731 16.384 0 0 0 0-0.683 0l-116.736 75.093c-4.096 3.413-10.24 3.413-13.653-0.683 0 0 0 0-0.683-0.683l-2.048-2.731-15.701-24.576c0.683-0.683-9.557-17.749 5.461-24.576z" />
<glyph unicode="&#xe946;" glyph-name="Summary_Roundtrip" d="M201.591 604.126v2.389c28.126-8.806 73.66-11.947 125.269-11.469 53.111-5.188 57.003-0.683 65.673-1.024 13.995-0.614 19.115-16.316 19.115-16.316l-54.204-234.769 42.667 0.614 31.949 59.87h26.351c8.356 2.067 14.726 8.756 16.295 17.137-1.322 8.872-7.698 15.821-16.007 17.987l-7.661 0.034 18.91 35.362h23.962c8.46 2.2 14.836 9.149 16.164 17.764-1.327 8.858-7.704 15.808-16.012 17.974l-4.998 0.034 48.538 90.931c1.57 0 14.882-1.502 16.452-1.502 56.047 0.819 168.619 3.345 207.804 14.199 25.259 6.827 41.37 19.251 40.96 28.126s-16.521 20.821-42.052 27.307c-38.98 10.035-151.552 11.332-207.804 10.718-1.911 0-15.633 3.618-17.476 3.55l-41.233 74.684c8.316 2.356 14.538 9.287 15.823 17.833-1.328 8.858-7.705 15.807-16.013 17.973l-19.607 0.034-19.661 35.362h3.686c8.46 2.2 14.836 9.149 16.164 17.764-1.429 8.745-7.776 15.573-16.013 17.701l-23.703 0.033-40.96 74.069-42.667-0.614 59.255-241.527s-4.779-19.251-18.91-20.48c-9.216-0.614-21.094-1.843-78.029-10.923-46.353-1.775-86.835-6.349-112.435-15.155l-32.563 45.67-52.565 16.862 39.253-83.831-37.342-86.903 52.087 18.432zM829.372 294.127v-2.389c-28.126 8.806-73.66 11.947-125.269 11.469-53.111 5.188-57.003 0.683-65.673 1.024-14.131 0.614-19.251 16.111-19.251 16.111l54.204 234.974-42.667-0.614-31.949-59.87h-26.283c-8.46-2.2-14.836-9.149-16.164-17.764 1.327-8.858 7.704-15.808 16.012-17.974l7.593-0.034-18.91-35.362h-23.962c-8.46-2.2-14.836-9.149-16.164-17.764 1.327-8.858 7.704-15.808 16.012-17.974l4.998-0.034-48.606-90.658c-1.57 0-14.882 1.502-16.452 1.502-56.047-0.819-168.619-3.345-207.804-14.199-25.259-6.827-41.37-19.251-40.96-28.126s16.521-20.821 42.052-27.307c39.39-9.762 151.893-11.264 207.94-10.445 1.911 0 15.633-3.618 17.476-3.55l41.097-74.342c-8.878-1.215-15.644-8.75-15.644-17.865 0-9.236 6.947-16.849 15.901-17.899l19.54-0.008 19.661-35.362h-3.686c-9.094-1.002-16.104-8.642-16.104-17.92s7.010-16.918 16.023-17.913l23.633-0.007 40.96-74.069 42.667 0.614-59.255 241.527s4.779 19.251 18.91 20.48c9.216 0.614 21.094 1.843 78.029 10.923 46.353 1.775 86.835 6.349 112.435 15.155l32.358-45.261 52.429-16.862-39.253 83.831 37.478 86.903-52.087-18.432z" />
<glyph unicode="&#xe947;" glyph-name="SwimmingPool" d="M962.97 90.283c-33.382-40.141-86.835-40.141-120.149 0-31.508 40.699-80.376 66.648-135.305 66.648s-103.796-25.949-135.013-66.257c-33.674-40.532-87.127-40.532-120.441-0.391-31.853 40.246-80.522 65.977-135.219 66.491-54.84-0.641-103.465-26.336-135.115-66.133-33.657-40.498-87.11-40.498-120.424-0.358-10.942 12.777-23.28 23.878-36.906 33.239l-0.641-129.7c27.041-19.994 60.94-32.149 97.66-32.562 54.853 0.641 103.478 26.335 135.128 66.133 33.657 40.498 87.11 40.498 120.424 0.358 31.508-40.699 80.376-66.648 135.305-66.648s103.796 25.949 135.013 66.257c33.674 40.532 87.127 40.532 120.441 0.391 31.853-40.246 80.522-65.977 135.219-66.491 36.916 0.279 70.849 12.459 98.287 32.878l-0.444 130.074c-14.362-9.87-26.788-21.060-37.604-33.671zM571.938 334.541c-33.382-40.141-86.835-40.141-120.149 0-22.21 26.982-51.609 47.296-85.273 58.080l-1.289 106.443h293.547v-106.086c-35.059-11.092-64.557-31.415-86.587-58.126zM658.5 743.322v-146.773h-293.547v146.773zM962.97 334.541c-33.382-40.141-86.835-40.141-120.149 0-22.217 26.956-51.616 47.247-85.273 58.012l-1.289 497.542c0 26.995-21.884 48.879-48.879 48.879s-48.879-21.884-48.879-48.879v-49.015h-293.547v49.015c0 26.995-21.884 48.879-48.879 48.879s-48.879-21.884-48.879-48.879v-497.118c-34.846-11.188-64.147-31.493-86.037-58.12-33.635-40.457-87.087-40.457-120.402-0.316-10.942 12.777-23.28 23.878-36.906 33.239l-0.641-129.7c27.041-19.994 60.94-32.149 97.66-32.562 54.853 0.641 103.478 26.335 135.128 66.133 14.782 17.486 36.305 28.286 60.349 28.286s45.567-10.8 59.98-27.814c31.603-40.814 80.471-66.763 135.399-66.763s103.796 25.949 135.013 66.257c14.799 17.52 36.321 28.32 60.366 28.32s45.567-10.8 59.98-27.814c31.948-40.36 80.617-66.091 135.314-66.606 36.916 0.279 70.849 12.459 98.287 32.878l-0.444 130.347c-14.001-10.184-26.224-21.432-37.043-33.929z" />
<glyph unicode="&#xe948;" glyph-name="Tajawal" d="M925.082 784.759v-347.477c-3.27-224.272-185.842-404.821-410.583-404.821-226.781 0-410.624 183.843-410.624 410.624 0 226.719 183.741 410.523 410.437 410.624h342.094c38.004 0 68.813-30.809 68.813-68.813 0-0.024 0-0.048 0-0.072zM915.866 925.184h-401.749c-266.232-0.181-481.986-216.046-481.986-482.304 0-266.369 215.935-482.304 482.304-482.304 264.065 0 478.564 212.215 482.256 475.402l0.004 0.348v408.030c0 44.64-36.188 80.828-80.828 80.828zM530.637 426.701v-320.853c173.399 9.148 311.706 147.454 320.818 320.014zM498.347 459.127v323.379c-175.245-8.029-315.289-148.121-323.216-322.644zM852.036 459.127v266.991c0 31.345-25.39 56.759-56.726 56.798h-264.674v-323.789z" />
<glyph unicode="&#xe949;" glyph-name="Time_details" d="M862.891 824.149c-204.117 190.464-524.288 179.541-714.752-25.259-14.336-14.336-14.336-36.864 0-51.2s36.864-14.336 51.2 0c133.803 133.12 338.603 165.205 506.539 77.141 212.309-110.592 295.595-372.053 185.685-585.045-110.592-212.309-372.053-295.595-585.045-185.685-212.309 110.592-295.595 372.053-185.685 585.045 0 0.683 0.683 1.365 0.683 2.048 8.192 18.432 1.365 40.277-17.067 48.469s-39.595 0.683-48.469-17.067c-36.864-70.997-55.979-150.187-55.979-230.741 0-279.211 226.645-505.856 505.856-505.856 133.803 0 262.827 53.248 357.035 148.139 8.875 8.192 17.067 16.384 25.259 25.259 190.464 204.117 178.859 524.288-25.259 714.752zM512.683 777.045c-20.48 0-36.864-16.384-36.864-36.864v-292.181c0-10.923 4.779-21.845 13.653-28.672l182.955-146.091c6.144-5.461 14.336-8.192 22.528-8.192 11.605 0 21.845 5.461 30.037 13.653 12.288 15.701 9.557 38.912-6.144 51.2l-169.301 135.168v275.115c0 20.48-16.384 36.864-36.864 36.864z" />
<glyph unicode="&#xe94a;" glyph-name="Time" d="M512 945.664c-275.115 0-497.664-222.549-497.664-497.664s222.549-497.664 497.664-497.664c275.115 0 497.664 222.549 497.664 497.664 0 0 0 0 0 0 0 274.432-223.232 497.664-497.664 497.664zM694.955 252.757l-14.336-14.336c-12.288-12.288-32.085-12.971-45.056-1.365l-187.733 163.84c-13.653 13.653-21.163 32.085-21.845 51.883l17.749 295.595c1.365 17.067 15.701 30.72 32.768 30.72h20.48c17.067 0 31.403-13.653 32.768-30.72l14.336-245.76c2.048-19.797 9.557-38.912 21.845-54.613l130.389-150.187c10.923-12.971 10.923-32.768-1.365-45.056z" />
<glyph unicode="&#xe94b;" glyph-name="viewCode" d="M512 236.373c-205.483 0-350.208 130.389-402.773 187.051 19.115 25.941 51.883 66.901 96.939 107.179 38.229 34.816 77.824 62.123 118.784 83.285-27.989-38.229-44.373-85.333-44.373-136.533 0-128.341 103.765-232.107 232.107-232.107s232.107 103.765 232.107 232.107c0 51.2-16.384 98.304-44.373 136.533 40.277-21.163 79.872-48.469 118.784-83.285 45.056-40.277 77.824-81.237 96.939-107.861-53.931-55.979-197.291-186.368-404.139-186.368zM512 652.117c19.797 0 35.499-15.701 35.499-35.499s-15.701-35.499-35.499-35.499c-56.661 0-103.083-46.421-103.083-103.083 0-19.797-15.701-35.499-35.499-35.499s-35.499 15.701-35.499 35.499c0 96.256 78.507 174.080 174.080 174.080zM1017.173 445.269c-7.509 12.971-191.829 313.344-505.173 313.344s-497.664-300.373-505.173-313.344c-10.24-17.067-8.875-38.229 2.731-53.931 7.509-10.24 191.829-251.221 502.443-251.221s494.933 240.981 502.443 251.221c11.605 15.701 12.971 36.864 2.731 53.931z" />
<glyph unicode="&#xe94c;" glyph-name="voucher" d="M1014.443 602.965l-105.813 105.813c-37.547-37.547-98.304-37.547-135.851 0s-37.547 98.304 0 135.851l-105.813 105.813c-12.971 12.971-33.451 12.971-46.421 0l-610.987-610.304c-12.971-12.971-12.971-33.451 0-46.421l105.813-105.813c37.547 37.547 98.304 37.547 135.851 0s37.547-98.304 0-135.851l105.813-105.813c12.971-12.971 33.451-12.971 46.421 0l610.304 610.987c13.653 11.605 13.653 32.768 0.683 45.739zM839.68 516.949v0 0l-396.629-396.629c-9.557-9.557-24.576-9.557-34.133 0v0l-224.597 224.597c-9.557 9.557-9.557 24.576 0 34.133v0l396.629 396.629c9.557 9.557 24.576 9.557 34.133 0v0l224.597-224.597c9.557-9.557 9.557-24.576 0-34.133zM235.52 361.301l363.179 363.179 190.464-190.464-363.179-363.179-190.464 190.464z" />
<glyph unicode="&#xe94d;" glyph-name="WhatisSecurityCode" d="M512 960c-282.624 0-512-229.376-512-512s229.376-512 512-512 512 229.376 512 512-229.376 512-512 512zM551.595 97.792c-11.605-11.605-25.941-17.749-42.325-17.749s-30.72 6.144-42.325 17.749c-11.605 11.605-17.749 25.941-17.749 42.325s6.144 30.72 17.749 42.325 25.941 17.749 42.325 17.749c16.384 0 30.72-6.144 42.325-17.749s17.749-25.941 17.749-42.325c0-16.384-5.461-30.72-17.749-42.325zM714.069 525.141c-7.509-19.797-18.432-38.229-32.085-54.613l-59.392-61.44-10.24-9.557c-10.24-9.557-18.432-17.749-24.576-24.576-5.461-6.144-10.24-12.971-13.653-19.797s-5.461-14.336-6.827-22.528c-1.365-8.875-2.048-19.797-2.048-33.451v-14.336c0-15.701-12.971-28.672-28.672-28.672h-52.565c-15.701 0-28.672 12.971-28.672 28.672v31.403c0 18.432 1.365 33.451 4.096 45.739s6.827 23.893 12.288 34.133c5.461 10.24 12.971 19.797 22.528 29.355 8.875 8.875 19.797 19.797 33.451 32.085 10.24 9.557 21.163 19.797 31.403 30.037 10.24 9.557 19.797 20.48 27.989 30.72s15.019 21.163 20.48 32.768c4.779 10.923 7.509 23.893 7.509 37.547s-2.731 27.307-7.509 38.912c-5.461 11.605-12.288 21.845-20.48 30.72-8.192 8.192-18.432 15.019-30.72 19.797-11.605 4.779-24.576 7.509-38.229 7.509-30.037 0-53.931-9.557-73.045-27.989-15.019-15.019-25.259-34.133-30.72-56.661-2.048-8.875-5.461-15.701-10.923-19.797-3.413-2.731-8.875-4.096-16.384-4.096-4.096 0-6.827 0.683-6.827 0.683l-58.027 5.461c-2.048 0-13.653 0.683-19.115 8.192-6.144 8.192-4.779 19.797-4.096 23.893 10.923 49.152 34.816 88.747 70.315 118.101 40.277 33.451 90.795 50.517 150.187 50.517 28.672 0 55.296-4.096 79.872-12.971 24.576-8.192 47.104-21.163 65.536-36.864 18.432-16.384 33.451-36.181 43.691-60.075 10.923-23.893 15.701-50.517 15.701-80.555 0.683-25.259-2.731-48.469-10.24-68.267z" />
<glyph unicode="&#xe94e;" glyph-name="wifi" d="M69.018 544.529c-25.267 0.091-45.715 20.595-45.715 45.875 0 12.628 5.103 24.065 13.359 32.36 121.733 121.491 289.78 196.619 475.373 196.619s353.64-75.128 475.386-196.632c8.293-8.285 13.431-19.75 13.431-32.416 0-25.313-20.521-45.834-45.834-45.834-12.648 0-24.1 5.123-32.393 13.408-105.137 104.923-250.269 169.806-410.555 169.806s-305.418-64.882-410.565-169.816c-8.266-8.258-19.694-13.371-32.317-13.371-0.059 0-0.119 0-0.178 0zM198.656 414.891c-25.297 0.052-45.783 20.571-45.783 45.875 0 12.628 5.103 24.065 13.358 32.36 88.53 88.369 210.751 143.017 345.735 143.017s257.204-54.648 345.743-143.026c8.298-8.289 13.435-19.754 13.435-32.42 0-25.313-20.521-45.834-45.834-45.834-12.648 0-24.1 5.123-32.393 13.408-71.934 71.802-171.24 116.204-280.917 116.204s-208.983-44.402-280.923-116.21c-8.27-8.262-19.698-13.374-32.32-13.374-0.035 0-0.071 0-0.106 0zM695.637 285.184c-12.697 0.041-24.168 5.256-32.42 13.647-38.712 38.716-92.185 62.659-151.251 62.659s-112.539-23.943-151.245-62.653c-8.299-8.299-19.763-13.432-32.427-13.432-25.327 0-45.858 20.531-45.858 45.858 0 12.663 5.133 24.128 13.432 32.427 55.299 55.316 131.703 89.53 216.098 89.53s160.799-34.215 216.097-89.529c8.255-8.295 13.358-19.731 13.358-32.36 0-25.304-20.487-45.823-45.778-45.875zM603.682 177.937c0-50.635-41.047-91.682-91.682-91.682s-91.682 41.047-91.682 91.682c0 50.635 41.047 91.682 91.682 91.682s91.682-41.047 91.682-91.682z" />
<glyph unicode="&#xe94f;" glyph-name="SpecialAssistance" d="M907.264 224.085l-120.832 221.184c-8.875 16.384-24.576 27.307-40.277 30.037-6.144 2.048-12.971 3.413-19.797 3.413h-183.637l-3.413 55.979h148.139c19.797 0 35.499 17.749 35.499 39.595s-15.701 39.595-35.499 39.595h-153.6l-4.779 69.632c-2.731 38.229-34.133 66.901-71.68 66.901-1.365 0-3.413 0-4.779 0l-15.019-0.683c-39.595-2.731-69.632-36.864-67.584-76.459l16.384-252.587c2.731-38.229 34.133-67.584 71.68-67.584 0.683 0 2.048 0 2.731 0h2.048c1.365 0 2.731 0 4.096 0h251.221l97.621-178.176c10.923-19.797 30.037-30.72 49.835-30.72 8.192 0 15.701 2.048 22.528 6.144 25.941 12.288 34.133 45.739 19.115 73.728zM530.432 853.504c0-46.374-37.594-83.968-83.968-83.968s-83.968 37.594-83.968 83.968c0 46.374 37.594 83.968 83.968 83.968s83.968-37.594 83.968-83.968zM721.579 170.837c-15.019-23.211-38.229-82.603-120.832-124.928-51.2-25.941-118.784-49.835-212.992-21.163s-210.944 136.533-195.243 288.085c10.24 80.555 36.864 144.043 121.515 209.579 17.749 16.384 17.067 27.307 8.875 36.181-8.192 9.557-20.48 11.605-32.085 4.096s-19.115-12.971-19.115-12.971-139.947-98.987-126.976-279.211c12.971-180.224 154.965-283.989 277.163-301.056 122.88-17.749 258.048 32.768 333.824 166.571 7.509 16.384 15.019 27.989 0 42.325 0.683 0.683-19.115 15.701-34.133-7.509z" />
<glyph unicode="&#xe950;" glyph-name="list" horiz-adv-x="1365" d="M1267.643 550.4c53.833 0 97.524-45.875 97.524-102.4s-43.691-102.4-97.524-102.4h-1170.286c-53.833 0-97.524 45.875-97.524 102.4s43.691 102.4 97.524 102.4h1170.286zM97.357 140.8h1005.714c53.833 0 97.524-45.875 97.524-102.4s-43.691-102.4-97.524-102.4h-1005.714c-53.833 0-97.524 45.875-97.524 102.4s43.691 102.4 97.524 102.4zM97.357 960h795.429c53.833 0 97.524-45.875 97.524-102.4s-43.691-102.4-97.524-102.4h-795.429c-53.833 0-97.524 45.875-97.524 102.4s43.691 102.4 97.524 102.4z" />
<glyph unicode="&#xe951;" glyph-name="download" d="M414.379 403.627c-12.288 12.288-31.403 12.288-43.691 0s-12.288-31.403 0-43.691l123.563-123.563c1.365-1.365 3.413-2.731 4.779-4.096 0.683-0.683 1.365-0.683 2.048-1.365 1.365-0.683 2.048-1.365 3.413-2.048 0.683-0.683 2.048-0.683 2.731-0.683s2.048-0.683 2.731-0.683 4.096-0.683 6.144-0.683c2.048 0 4.096 0 6.144 0.683 0.683 0 2.048 0.683 2.731 0.683s2.048 0.683 2.731 0.683c1.365 0.683 2.048 1.365 3.413 2.048 0.683 0.683 1.365 0.683 2.048 0.683 2.048 1.365 3.413 2.731 4.779 4.096l124.245 124.245c12.288 12.288 12.288 31.403 0 43.691s-31.403 12.288-43.691 0l-70.997-70.997v235.52c0 17.067-13.653 30.72-30.72 30.72s-30.72-13.653-30.72-30.72v-234.837l-71.68 70.315zM423.253 707.413v108.544c0 17.067-13.653 30.72-30.72 30.72s-30.72-13.653-30.72-30.72v-108.544c0-8.875-6.827-15.701-15.701-15.701h-108.544c-17.067 0-30.72-13.653-30.72-30.72s13.653-30.72 30.72-30.72h108.544c42.325-0.683 77.141 34.133 77.141 77.141zM702.464 165.376h-372.053c-17.067 0-30.72-13.653-30.72-30.72s13.653-30.72 30.72-30.72h371.371c17.067 0 30.72 13.653 30.72 30.72 0.683 17.067-12.971 30.72-30.037 30.72zM839.68 939.52h-448.512c-27.307 0-53.248-10.923-72.363-30.037l-174.763-174.763c-19.115-19.115-30.037-45.739-30.037-72.363v-636.245c0-43.008 35.499-77.824 79.189-77.824h646.485c43.691 0 79.189 34.816 79.189 77.141v836.949c0 42.325-35.499 77.141-79.189 77.141zM856.747 26.112c0-8.875-8.192-15.701-17.749-15.701h-645.803c-9.557 0-17.749 6.827-17.749 15.701v636.245c0 10.923 4.096 21.163 11.605 28.672l174.763 174.763c7.509 7.509 17.749 11.605 28.672 11.605h449.195c9.557 0 17.749-6.827 17.749-15.701v-835.584z" />
<glyph unicode="&#xe952;" glyph-name="crescent" d="M499.889 960c-161.206 0-467.889-174.921-467.889-512 0-282.77 231.434-512 516.923-512 234.351 0 375.988 152.942 443.077 215.991-473.834-89.527-815.372 460.581-492.111 808.009z" />
<glyph unicode="&#xe953;" glyph-name="id-card" horiz-adv-x="1365" d="M1213.155 666.535h-547.369v-85.333h547.366v85.333h0.003zM1213.155 503.269h-547.369v-85.333h547.366v85.333h0.003zM1213.155 339.708h-547.369v-85.333h547.366v85.333h0.003zM104.64 960h1156.118c29.19 0 55.326-13.047 73.85-32.758 18.39-19.59 30.684-47.392 30.684-78.445v-801.462c0-31.205-12.294-59.016-30.684-78.573-18.521-19.584-44.66-32.761-73.85-32.761h-1156.118c-29.277 0-55.407 13.175-73.789 32.761-18.468 19.557-30.809 47.368-30.809 78.573v801.459c0 31.054 12.338 58.859 30.809 78.445 18.382 19.714 44.512 32.761 73.789 32.761zM341.375 456.615c47.128 0 85.333 38.205 85.333 85.333s-38.205 85.333-85.333 85.333c-47.128 0-85.333-38.205-85.333-85.333s38.205-85.333 85.333-85.333zM341.375 413.948c-130.133 0-170.667-85.333-170.667-85.333v-42.667h341.333v42.667c0 0-40.533 85.333-170.667 85.333z" />
<glyph unicode="&#xe954;" glyph-name="user-o" d="M512 960c-281.6 0-512-230.4-512-512s230.4-512 512-512 512 230.4 512 512-230.4 512-512 512zM512 789.333c93.867 0 170.667-93.867 170.667-213.333s-76.8-213.333-170.667-213.333-170.667 93.867-170.667 213.333 76.8 213.333 170.667 213.333zM793.6 128c-72.533-64-174.933-106.667-281.6-106.667s-209.067 42.667-281.6 106.667c-17.067 17.067-21.333 42.667-4.267 59.733 46.933 55.467 110.933 93.867 179.2 115.2 34.133-17.067 68.267-25.6 106.667-25.6s72.533 8.533 106.667 25.6c72.533-21.333 132.267-59.733 179.2-115.2 17.067-17.067 17.067-42.667-4.267-59.733z" />
<glyph unicode="&#xe955;" glyph-name="size" d="M292.011 172.373h101.803c21.773 0 39.424-17.651 39.424-39.424s-17.651-39.424-39.424-39.424h-196.864c-0.025 0-0.055 0-0.085 0-21.726 0-39.339 17.613-39.339 39.339 0 0.030 0 0.060 0 0.090v196.859c0 21.75 17.632 39.381 39.381 39.381s39.381-17.632 39.381-39.381v-101.803l495.872 495.616h-102.059c-21.75 0-39.381 17.632-39.381 39.381s17.632 39.381 39.381 39.381h196.864c21.76 0 39.424-17.664 39.424-39.424v-196.864c0-21.75-17.632-39.381-39.381-39.381s-39.381 17.632-39.381 39.381v101.888l-495.787-495.616zM39.424 960h945.237c21.675 0 39.339-17.664 39.339-39.339v-945.408c0-21.726-17.613-39.339-39.339-39.339h-945.408c-21.689 0.049-39.253 17.642-39.253 39.339 0 0.030 0 0.060 0 0.090v945.403c0 21.589 17.664 39.253 39.339 39.253zM78.763 14.763h866.475v866.475h-866.475v-866.475z" />
<glyph unicode="&#xe956;" glyph-name="view" d="M928-64h-832c-0.513-0.010-1.117-0.016-1.722-0.016-52.077 0-94.293 42.217-94.293 94.293 0 0.606 0.006 1.21 0.017 1.813l-0.001 831.909c0 54.443 41.557 96 96 96h832c54.357 0 96-41.557 96-96v-832c0-54.357-41.643-96-96-96zM896 800c0 19.2-12.8 32-32 32h-704c-19.2 0-32-12.8-32-32v-566.357l121.6 121.6c38.4 38.4 99.243 38.4 137.557 0l76.8-76.8 172.885 172.715c38.4 38.4 99.157 38.4 137.557 0l124.843-124.757-3.243 473.6zM335.957 512c-60.757 0-111.957 51.2-111.957 112.043 0 60.757 51.2 111.957 112.043 111.957 60.757 0 111.957-51.2 111.957-112.043 0-60.757-51.2-111.957-112.043-111.957z" />
<glyph unicode="&#xe957;" horiz-adv-x="1161" d="M1045.572 119.433v550.434c-0.387 47.211-38.748 85.334-86.013 85.334-0.073 0-0.146 0-0.219 0h-71.874v-721.101h71.885c0.062 0 0.135 0 0.208 0 47.265 0 85.627 38.123 86.013 85.297v0.037zM86.221 34.099h71.885v721.101h-71.885c-0.062 0-0.135 0-0.208 0-47.265 0-85.627-38.123-86.013-85.297v-550.471c0-46.899 38.775-85.333 86.221-85.333zM818.517 719.701h-123.631v44.032c-0.074 70.712-57.415 128.006-128.136 128.006-0.432 0-0.864-0.002-1.295-0.006l0.066 0.001h-107.793c-0.345 0.003-0.753 0.005-1.161 0.005-70.722 0-128.062-57.294-128.136-127.998v-44.107h-123.631v-721.033h613.717v721.033zM608.666 719.701h-192.58v44.032c0 24.166 18.637 42.667 43.076 42.667h107.861c24.371 0 43.008-18.432 43.008-42.667v-44.1h-1.365z" />
<glyph unicode="&#xe958;" glyph-name="freebaggage-icon" horiz-adv-x="1170" d="M1159.534 85.358v589.678c-0.414 50.583-41.516 91.429-92.157 91.429-0.104 0-0.208 0-0.312-0.001h-76.93v-772.535h76.946c0.088 0 0.192 0 0.295 0 50.642 0 91.743 40.846 92.157 91.39v0.039zM103.131-6.071h77.019v772.535h-76.946c-0.088 0-0.192 0-0.295 0-50.642 0-91.743-40.846-92.157-91.39v-589.717c0-50.322 41.618-91.429 92.453-91.429zM913.115 766.464h-132.389v47.25c-0.080 75.762-61.516 137.149-137.289 137.149-0.463 0-0.925-0.002-1.387-0.007l0.071 0.001h-115.493c-0.391 0.004-0.854 0.006-1.317 0.006-75.773 0-137.209-61.387-137.289-137.142v-47.258h-132.389v-772.535h657.554v772.535zM688.347 766.464h-206.409v47.25c0 25.893 20.041 45.714 46.226 45.714h115.493c26.185 0 46.226-19.749 46.226-45.714v-47.25h-1.609z" />
<glyph unicode="&#xe959;" horiz-adv-x="1161" d="M904.533 446.498c-122.576 0.194-221.867 99.606-221.867 222.208 0 0.168 0 0.336 0.001 0.504v-0.026c0 0.101 0 0.221 0 0.342 0 122.602 99.291 222.013 221.848 222.208h0.019c122.539 0 221.867-99.669 221.867-222.549 0-0.142 0.001-0.31 0.001-0.478 0-122.602-99.292-222.014-221.848-222.208h-0.019z" />
<glyph unicode="&#xe95a;" horiz-adv-x="1161" d="M1020.109 758.613c24.644 24.713 32.563 25.19 7.919 49.835s-25.19 16.794-49.835-7.851l-46.080-46.148-46.080 46.148c-24.644 24.576-25.259 32.495-49.835 7.851s-16.725-25.122 7.851-49.835l46.148-46.080-48.128-48.060c-24.576-24.576-32.495-25.122-7.851-49.835 24.644-24.576 25.19-16.725 49.835 7.919l48.060 48.128 48.060-48.128c24.644-24.576 25.122-32.495 49.835-7.851 24.576 24.576 16.725 25.122-7.919 49.835l-48.060 47.991 46.080 46.148z" />
<glyph unicode="&#xe95b;" horiz-adv-x="964" d="M722.522 738.515l-40.117-50.477c109.99-83.908 164.864-219.678 143.179-354.424-16.698-101.642-72.665-187.791-151.496-243.905l-1.14-0.771c-62.325-45.005-140.258-71.983-224.492-71.983-21.203 0-42.007 1.709-62.281 4.998l2.221-0.297c-208.294 32.166-351.172 224.376-318.404 428.514 16.714 101.651 72.702 187.801 151.555 243.905l1.141 0.771c62.187 44.889 139.941 71.796 223.979 71.796 10.145 0 20.199-0.392 30.147-1.162l-1.318 0.082-77.463-79.571 52.164-48.791 160.768 165.346-52.104 48.67h-0.060l-116.495 108.785-49.754-51.2 84.932-79.149c-9.257 0.677-20.055 1.063-30.943 1.063-98.417 0-189.471-31.53-263.61-85.039l1.327 0.912c-93.677-66.589-159.247-167.457-178.494-283.953l-0.345-2.526c-38.37-238.953 128.904-463.992 372.736-501.64 23.552-3.614 47.104-5.421 70.475-5.421 0.128 0 0.278 0 0.429 0 98.393 0 189.419 31.539 263.521 85.059l-1.324-0.91c93.682 66.584 159.254 167.455 178.494 283.954l0.344 2.525c25.299 157.756-38.912 316.717-167.635 414.84z" />
<glyph unicode="&#xe95c;" horiz-adv-x="964" d="M737.882 446.675c-108.155 0.171-195.765 87.887-195.765 196.066 0 0.148 0 0.297 0 0.445v-0.023c0 0.089 0 0.195 0 0.301 0 108.178 87.61 195.894 195.748 196.066h0.017c108.122 0 195.765-87.944 195.765-196.367 0-0.125 0-0.274 0-0.422 0-108.178-87.61-195.894-195.749-196.066h-0.016z" />
<glyph unicode="&#xe95d;" horiz-adv-x="964" d="M839.861 722.071c21.745 21.805 28.732 22.227 6.987 43.972s-22.227 14.818-43.972-6.927l-40.659-40.719-40.659 40.719c-21.745 21.685-22.287 28.672-43.972 6.927s-14.758-22.167 6.927-43.972l40.719-40.659-42.466-42.406c-21.685-21.685-28.672-22.167-6.927-43.972 21.745-21.685 22.227-14.758 43.972 6.987l42.406 42.466 42.406-42.466c21.745-21.685 22.167-28.672 43.972-6.927 21.685 21.685 14.758 22.167-6.987 43.972l-42.406 42.345 40.659 40.719z" />
<glyph unicode="&#xe95e;" horiz-adv-x="964" d="M493.929 171.52v45.658c55.296 5.662 109.508 39.575 109.508 104.448 0 87.462-83.426 97.581-144.324 104.93-39.936 4.638-70.475 10.12-70.475 34.515 0 33.551 47.586 37.225 68.006 37.225 30.118 0 62.404-13.975 73.427-31.864l2.47-4.036 59.392 26.865-2.409 4.939c-23.010 46.020-64.572 59.031-95.593 64.211v40.177h-69.512v-40.056c-67.283-9.336-107.219-45.538-107.219-97.461 0-84.149 78.366-92.762 135.529-99.027 52.224-6.024 76.499-18.854 76.499-40.358 0-40.84-56.983-44.032-74.451-44.032-38.671 0-76.077 19.034-86.92 44.273l-2.108 4.879-64.572-26.805 2.168-4.879c19.757-45.417 62.645-73.728 121.073-80.113v-43.55h69.512z" />
<glyph unicode="&#xe95f;" glyph-name="refundable-icon" horiz-adv-x="904" d="M722.522 738.515l-40.117-50.477c109.99-83.908 164.864-219.678 143.179-354.424-16.698-101.642-72.665-187.791-151.496-243.905l-1.14-0.771c-62.325-45.005-140.258-71.983-224.492-71.983-21.203 0-42.007 1.709-62.281 4.998l2.221-0.297c-208.294 32.166-351.172 224.376-318.404 428.514 16.714 101.651 72.702 187.801 151.555 243.905l1.141 0.771c62.187 44.889 139.941 71.796 223.979 71.796 10.145 0 20.199-0.392 30.147-1.162l-1.318 0.082-77.463-79.571 52.164-48.791 160.768 165.346-52.104 48.67h-0.060l-116.495 108.785-49.754-51.2 84.932-79.149c-9.257 0.677-20.055 1.063-30.943 1.063-98.417 0-189.471-31.53-263.61-85.039l1.327 0.912c-93.677-66.589-159.247-167.457-178.494-283.953l-0.345-2.526c-38.37-238.953 128.904-463.992 372.736-501.64 23.552-3.614 47.104-5.421 70.475-5.421 0.128 0 0.278 0 0.429 0 98.393 0 189.419 31.539 263.521 85.059l-1.324-0.91c93.682 66.584 159.254 167.455 178.494 283.954l0.344 2.525c25.299 157.756-38.912 316.717-167.635 414.84zM493.929 171.52v45.658c55.296 5.662 109.508 39.575 109.508 104.448 0 87.462-83.426 97.581-144.324 104.93-39.936 4.638-70.475 10.12-70.475 34.515 0 33.551 47.586 37.225 68.006 37.225 30.118 0 62.404-13.975 73.427-31.864l2.47-4.036 59.392 26.865-2.409 4.939c-23.010 46.020-64.572 59.031-95.593 64.211v40.177h-69.512v-40.056c-67.283-9.336-107.219-45.538-107.219-97.461 0-84.149 78.366-92.762 135.529-99.027 52.224-6.024 76.499-18.854 76.499-40.358 0-40.84-56.983-44.032-74.451-44.032-38.671 0-76.077 19.034-86.92 44.273l-2.108 4.879-64.572-26.805 2.168-4.879c19.757-45.417 62.645-73.728 121.073-80.113v-43.55h69.512z" />
<glyph unicode="&#xe960;" glyph-name="bus" horiz-adv-x="931" d="M863.511 468.666l-15.36 384.465c-3.817 94.208-39.75 106.868-155.276 106.868h-455.494c-109.568 0-150.063-11.264-154.531-106.868l-16.012-384.465v-504.553h132.841v105.565c79.058-1.903 172.173-2.987 265.542-2.987 93.376 0 186.498 1.084 279.355 3.241l-13.814-0.254v-105.565h132.189l0.652 504.553zM177.617 193.862c-44.404 0-44.404 106.217 0 106.217h92.998c44.497 0 44.497-106.217 0-106.217h-92.998zM99.98 532.433v138.147l-61.068 9.961c-50.455 8.564-48.407-108.265-13.312-120.832l74.38-27.276zM653.684 193.862c-45.149 0-45.149 106.217 0 106.217h98.956c44.404 0 44.404-106.217 0-106.217h-98.956zM143.825 454.796l3.91 244.922c1.396 65.722 33.233 74.473 102.959 74.473h428.87c73.076 0 101.562-8.751 102.865-74.473l4.003-244.922c-163.281-2.048-479.977-2.048-642.607 0zM365.568 813.847c-33.233 0-33.233 66.374 0 66.374h199.215c33.14 0 33.14-66.374 0-66.374h-199.215zM830.278 532.34l75.031 27.276c35.188 12.567 37.236 129.396-13.312 120.832l-61.719-9.961v-138.147z" />
</font>
</defs>
</svg>
